<!DOCTYPE svg PUBLIC "-//W3C//DTD SVG 1.1//EN" "http://www.w3.org/Graphics/SVG/1.1/DTD/svg11.dtd" [
	<!ENTITY ns_flows "http://ns.adobe.com/Flows/1.0/">
]><svg xmlns="http://www.w3.org/2000/svg" width="180" height="62" viewBox="0 0 180 62" overflow="visible"><path fill="#B9B9B9" d="M179.02 39.584c-1.787.95-4.466 1.297-6.543 1.335-4.21.084-7.61-2.803-9.8-6.212-1.436-2.205-2.33-4.726-2.557-7.422-.355-4.146.658-8.926 5.335-10.095 3.15-.79 6.084.946 7.247 3.952.517 1.394.197 2.087-1.063 2.603l-11.28 4.734 3.84.24c4.584-1.91 9.703-3.688 14.28-5.587.95-.395 1.028-.468.663-1.472-1.98-5.662-9.458-8.737-15.846-6.073-5.028 2.104-8.673 7.415-8.673 13.373 0 8.025 5.776 15.146 13.646 15.146 3.607 0 6.165-.49 8.45-1.93.494-.465 3.23-2.68 3.28-3.154.005-.117-.403.224-.98.562M149.306 38.333c.083-11.257-.2-22.575.27-33.84.075-.96.172-2.06.532-2.626.51-.786.906-1.106 2.068-1.866h-8.424c-1.673.745-3.166 1.906-4.78 2.72 1.7-.055 3.24-.03 4.92-.07-.73 11.314-.264 22.594-.323 34.34.086 3.497-.616 4.402-1.972 5.82 3.61 0 7.034.063 10.647.063.74-.442 1.716-1.434 2.314-1.952-3.988.12-5.183.492-5.254-2.587M140.617 15.532c-5.136-.053-9.993-.053-15.222-.053-5.038 0-9.58 2.438-11.617 6.82-.942 2.015-1.312 4.605-.726 7.053 1.19 4.874 6.267 8.092 11.203 7.34.546-.074.718-.244.426.248-1.088 1.92-.28 4.777 1.84 6.164-1.39-.085-2.912-.12-4.61.07-6.02.72-12.69 3.82-12.343 10.303.262 5.047 5.36 8.755 13.425 8.767 6.502-.01 12.6-2.08 15.16-6.663 2.71-4.83 1.117-9.818-2.95-12.85-1.847-1.388-5.067-3.297-4.87-5.924.07-.886.732-1.85 1.98-2.588 2.23-1.292 3.75-3.014 4.5-5.004.78-2.096.663-4.4-.107-6.467-.732-1.938-2.05-3.705-3.786-4.898h4.086l3.61-2.318zm-10.215 30.555c3.55 2.242 4.69 4.975 4.393 7.512-.345 3.05-3.29 5.44-8.28 5.743-5.36.333-12.552-1.79-11.22-8.824.716-3.75 5.69-5.68 9.79-5.804 1.15-.04 2.298.048 3.427.083.608.434 1.257.862 1.89 1.287m-2.714-11.307c-3.61.995-7.585-1.817-8.86-6.826-1.425-5.512.024-9.01 3.437-10.067 4.01-1.263 8.306 2.387 9.284 8.32.653 3.89-.344 7.586-3.862 8.573M94.806 14.7c-8.355 0-15.197 6.515-15.197 14.514 0 9.162 7.953 15.424 17.05 14.456 7.558-.802 13.757-7.515 13.308-14.998-.447-7.547-5.5-13.973-15.162-13.973m2.896 26.723c-5.08 1.155-10.458-3.045-11.792-10.18-1.47-7.83.95-12.996 5.737-14.263 5.68-1.495 11.46 4.215 12.284 12.643.568 5.513-1.28 10.653-6.228 11.8M61.688 14.7c-8.48 0-15.394 6.515-15.394 14.514 0 9.162 8.035 15.424 17.246 14.456 7.663-.802 13.92-7.515 13.452-14.998-.46-7.547-5.545-13.973-15.304-13.973m2.91 26.723c-5.13 1.155-10.57-3.045-11.922-10.18-1.495-7.83.97-12.996 5.814-14.263 5.734-1.495 11.566 4.215 12.418 12.643.56 5.513-1.31 10.653-6.31 11.8"/><path fill="#B9B9B9" d="M26.338 32.266l9.285-.278v8.038c0 1.15.013 1.32-1.873 1.928-2.65.71-5.63.857-8.356.616C16.13 41.788 9.08 34.46 7.4 25.34 5.79 16.68 9.9 8.477 16.802 5.107c3.37-1.65 7.418-2.432 11.807-1.015 2.744.86 5.25 2.46 7.418 4.64l-1.512 2.735 2.863-.773 4.376-4.5C34.3.023 21.493-.783 13.01 3.498 5.637 7.24.264 14.64.014 22.914-.283 31.6 4.81 38.502 9.938 41.953c8.48 5.73 23.173 4.466 32.03-.018l-.035-.825h.036v-9.122l2.044-2.414H31.12l-4.782 2.692z"/></svg>