<svg xmlns="http://www.w3.org/2000/svg" width="120" height="30" viewBox="0 0 120 30" enable-background="new 0 0 416 286"><defs><linearGradient><stop offset="0" stop-color="#4b4b4b"/><stop offset="1" stop-color="#ff00a4"/></linearGradient><linearGradient><stop offset="0" stop-color="#6a00c9"/><stop offset="1" stop-color="#4b4b4b"/></linearGradient><linearGradient><stop offset="0" stop-color="#ff32a3"/><stop offset=".368" stop-color="#f732e1"/><stop offset=".782" stop-color="#a132f0"/><stop offset="1" stop-color="#6d32ff"/></linearGradient></defs><g letter-spacing="0" word-spacing="0"><text style="line-height:125%" x="16" y="66" transform="matrix(.998 0 0 .998 0 -90)" font-size="40" font-family="Sans"/><g style="line-height:125%" font-size="131.25" fill="#4b4b4b" font-family="Leckerli One"><path d="M8.7 10.75c1.976 0 3.802.02 5.48.057.875-3.54 1.733-6.002 2.57-7.38.56-.802 1.12-1.38 1.68-1.734.222-.15.446-.224.67-.224.242 0 .363.363.363 1.09 0 .726-.065 1.49-.195 2.292-.112.8-.26 1.724-.448 2.768-.615 3.43-1.08 6.17-1.398 8.22-.298 2.05-.447 4.024-.447 5.925 0 .522-.373.783-1.118.783-1.174 0-1.976-.223-2.404-.67-.43-.467-.643-1.296-.643-2.49 0-1.21.242-3.11.727-5.702-2.05-.093-3.346-.14-3.886-.14H8.505c-.205 0-.41.01-.615.028-.84 3.206-1.26 5.74-1.26 7.604 0 1.1-1.07 1.65-3.214 1.65-.466 0-.745-.233-.838-.7-.075-.484-.112-1.257-.112-2.32 0-1.08.335-3.01 1.006-5.786-1.137.167-1.966.25-2.488.25-.242 0-.363-.092-.363-.278 0-.41.3-.876.895-1.398.615-.522 1.51-.94 2.684-1.258.69-2.386 1.378-4.343 2.068-5.87-2.013.036-3.495.428-4.445 1.173-.298.225-.54.43-.727.616-.186.168-.354.252-.503.252-.13 0-.26-.112-.392-.336-.13-.223-.194-.52-.194-.894 0-1.36 1.146-2.395 3.438-3.103 1.827-.56 3.95-.848 6.374-.867h.056c.13 0 .308.075.53.224.244.15.365.39.365.726 0 .336-.066.718-.197 1.147-.112.41-.27.717-.475.922-.112.876-.578 2.684-1.398 5.424" style="-inkscape-font-specification:Leckerli One"/><path d="M37.63 15.81c.335 0 .502.43.502 1.287 0 .466-.195 1.034-.587 1.705-.39.652-.904 1.258-1.537 1.817-.615.54-1.305.987-2.07 1.34-.763.355-1.51.532-2.236.532-.987 0-1.65-.866-1.984-2.6-.485.802-1.12 1.463-1.902 1.985-.782.504-1.835.755-3.16.755-1.303 0-2.356-.41-3.158-1.23-.8-.82-1.192-1.817-1.174-2.99 0-3.17 1.053-5.667 3.16-7.494.894-.764 1.723-1.267 2.487-1.51.784-.24 1.604-.363 2.462-.363.857 0 1.556.15 2.096.448.26-.54.56-.81.895-.81.652 0 1.267.288 1.845.866.596.558.895 1.09.895 1.592-.26.615-.643 1.35-1.147 2.21-.15.856-.223 2.058-.223 3.605 0 1.547.195 2.32.587 2.32.484 0 1.66-.97 3.522-2.907.336-.373.578-.56.727-.56M24.433 17.49c0 1.435.53 2.153 1.593 2.153 1.137-.018 2.078-.624 2.824-1.816.262-.41.476-.914.644-1.51 0-2.087.186-3.877.56-5.368-1.51.3-2.825 1.026-3.943 2.18-1.117 1.157-1.676 2.61-1.676 4.362" style="-inkscape-font-specification:Leckerli One"/><path d="M41.152 10.108c0 1.248-.223 2.665-.67 4.25.037.595.055 1.173.055 1.732.038 1.193.187 2.013.448 2.46.186.243.428.364.727.364.577 0 1.295-.41 2.152-1.23-.652-1.547-.978-2.945-.978-4.194 0-2.553 1.202-3.83 3.606-3.83.82 0 1.5.243 2.04.727.56.466.84 1.053.84 1.762 0 1.49-.83 3.28-2.488 5.366.69.82 1.248 1.295 1.677 1.426.616 0 1.538-1.137 2.77-3.41-.225-.84-.337-1.622-.337-2.35 0-1.322.205-2.29.615-2.907.503-.782 1.333-1.174 2.488-1.174 1.174 0 1.836.477 1.985 1.427.038.28.057.578.057.895 0 1.192-.662 2.842-1.985 4.948.466.67.904 1.072 1.314 1.202.857 0 1.584-.29 2.18-.867.224-.205.41-.39.56-.56.168-.185.335-.278.503-.278.26 0 .39.307.39.922 0 1.136-.335 1.975-1.006 2.515-.67.54-1.547.81-2.628.81-1.08 0-2.022-.52-2.823-1.564-.97 1.268-1.77 2.153-2.405 2.656-1.155.95-2.06 1.426-2.71 1.426-.318 0-.728-.26-1.232-.783-.484-.54-.97-1.24-1.453-2.097-.895.838-1.78 1.528-2.656 2.068-.876.542-1.612.812-2.21.812-1.08 0-1.993-2.348-2.738-7.045-.262-1.603-.393-2.702-.393-3.3.038-1.23.205-2.086.503-2.57.41-.597 1.212-.895 2.405-.895.447 0 .792.14 1.034.42.24.26.362.55.362.866m4.78 5.032c.616-.95.924-1.705.924-2.265 0-.577-.196-.866-.588-.866-.26 0-.428.148-.503.446-.056.28-.084.652-.084 1.118 0 .466.085.988.253 1.566" style="-inkscape-font-specification:Leckerli One"/><path d="M66.03 16.286c.503 1.994 1.35 2.99 2.544 2.99.577 0 1.1-.176 1.565-.53.465-.354.884-.736 1.257-1.146.373-.43.7-.82.98-1.174.278-.354.54-.53.78-.53.244 0 .365.316.365.95 0 1.322-.615 2.6-1.845 3.83s-2.61 1.835-4.138 1.816c-1.51 0-2.862-1.332-4.054-3.997-.336-.746-.653-1.5-.95-2.265l-.197 3.83c0 .354-.02.708-.057 1.063-.037.335-.195.615-.475.838-.727.58-1.463.868-2.208.868-.876 0-1.314-.904-1.314-2.712 0-2.61.307-5.34.922-8.19.615-2.853 1.212-4.996 1.79-6.43.596-1.455 1.053-2.424 1.37-2.908.335-.485.596-.783.782-.895.187-.112.392-.168.615-.168.242 0 .494.12.755.364.26.222.54.576.84 1.06.297.467.446.933.446 1.4.02.446-.056.893-.224 1.34-.15.43-.354.858-.615 1.287-.26.41-.55.838-.866 1.286-.316.428-.633.894-.95 1.397l-.28 2.35c.653-1.362 1.613-2.275 2.88-2.74.447-.17.97-.253 1.566-.253 1.192 0 2.106.29 2.74.867.633.56.95 1.39.95 2.488 0 1.1-.55 2.032-1.65 2.796-1.1.764-2.208 1.137-3.326 1.118m1.062-3.27c0-.672-.382-1.007-1.146-1.007-.764 0-1.594.735-2.488 2.207-.26.43-.485.867-.67 1.314 1.937-.11 3.26-.632 3.968-1.564.224-.298.336-.615.336-.95" style="-inkscape-font-specification:Leckerli One"/><path d="M75.472 22.492c-1.863 0-2.795-1.742-2.795-5.227 0-1.9.233-3.625.7-5.172.725-2.386 1.545-3.58 2.46-3.58.54 0 .968.365 1.285 1.092.26.56.382 1.108.363 1.65 0 .744-.224 2.058-.67 3.94-.43 1.64-.644 2.657-.644 3.048 0 .39.094.662.28.81.206.15.44.224.7.224.28 0 .624-.177 1.034-.53.41-.355.82-.737 1.23-1.147.41-.43.783-.82 1.118-1.174.354-.354.597-.53.727-.53.26 0 .39.316.39.95 0 1.304-.66 2.58-1.984 3.83-1.305 1.23-2.703 1.835-4.194 1.816M76.618 6.25c-.503-.746-.754-1.547-.754-2.404 0-.858.13-1.566.39-2.125.28-.577.542-.996.784-1.257.242-.28.522-.42.84-.42.52 0 .996.392 1.424 1.175.43.764.643 1.407.643 1.93 0 .968-.345 1.732-1.034 2.29-.67.542-1.434.812-2.292.812" style="-inkscape-font-specification:Leckerli One"/><path d="M83.97 8.458c.672 0 1.306.643 1.902 1.93.876-.914 1.957-1.37 3.243-1.37 1.305 0 2.283.288 2.936.866.653.56.98 1.36.98 2.404 0 1.025-.14 2.07-.42 3.13-.26 1.064-.457 1.828-.587 2.294-.112.447-.168.82-.168 1.118 0 .298.103.447.308.447.28 0 .624-.177 1.034-.53.41-.355.82-.737 1.23-1.147.41-.43.783-.82 1.118-1.174.354-.354.597-.53.727-.53.26 0 .392.316.392.95 0 1.304-.643 2.562-1.93 3.773-2.16 1.267-3.54 1.9-4.137 1.9-.056 0-.093-.01-.112-.028-1.49 0-2.236-1.192-2.236-3.578 0-1.025.092-1.966.278-2.824l.448-1.873c.093-.39.14-.792.14-1.202 0-.67-.392-1.006-1.175-1.006-.763 0-1.5.577-2.207 1.732-.69 1.137-1.156 2.32-1.398 3.55v.196c0 .634.093 1.286.28 1.957.204.67.307 1.137.307 1.398 0 .634-.792 1.258-2.376 1.873-.243.093-.457.14-.643.14-.466 0-.792-.242-.98-.727-.167-.486-.25-1.24-.25-2.266 0-2.646.102-4.556.307-5.73.28-1.752.913-3.383 1.9-4.893.337-.52.7-.782 1.09-.782" style="-inkscape-font-specification:Leckerli One"/><path d="M105.976 9.688c.26-.82.68-1.23 1.258-1.23.522.02 1.016.392 1.482 1.12.466.707.7 1.257.7 1.648-.04.764-.272 1.985-.7 3.662-.43 1.66-1.035 3.82-1.817 6.486 1.23-.95 2.44-2.19 3.633-3.718.41-.522.755-.94 1.034-1.258 3.032-4.015 4.023-11.293 7.642-9.487 2.934 2.713-2.014 6.972-5.853 11.752-1.305 1.566-5.564 5.023-7.465 5.9-.223.745-.466 1.453-.727 2.124-.26.67-.596 1.258-1.006 1.76-.896 1.082-2.256 1.622-4.083 1.623-1.23-.002-2.283-.356-3.16-1.064-.856-.708-1.285-1.593-1.285-2.656 0-.577.187-1.034.56-1.37.39-.335.922-.605 1.593-.81.67-.205 1.454-.382 2.348-.53.913-.15 1.883-.337 2.908-.56.094-.317.168-.625.224-.923l.224-.95c-1.025.95-2.283 1.425-3.774 1.425-1.473 0-2.61-.41-3.41-1.23-.802-.82-1.194-1.817-1.175-2.99 0-3.17 1.052-5.667 3.158-7.494 1.454-1.248 2.963-1.873 4.53-1.873.54 0 1.117.066 1.732.196.634.132 1.11.28 1.426.448m-6.737 7.8c0 1.435.53 2.153 1.592 2.153.596 0 1.202-.223 1.817-.67.614-.447 1.108-1.174 1.48-2.18.28-1.305.57-2.507.868-3.607.316-1.1.53-1.864.643-2.292-1.565.206-3.028.904-4.39 2.097-1.34 1.193-2.01 2.693-2.01 4.5m2.934 8.164c-.67.132-1.258.234-1.76.31-.504.073-.924.14-1.26.195-.316.056-.558.12-.726.195-.15.075-.224.196-.224.364 0 .335.205.624.615.866.428.243.847.355 1.257.336.71 0 1.407-.755 2.097-2.265" style="-inkscape-font-specification:Leckerli One"/></g></g></svg>