<svg xmlns="http://www.w3.org/2000/svg" width="100" height="100" viewBox="0 -4.831 100 100" overflow="visible" enable-background="new 0 -4.831 100 100"><path fill="#e447ef" d="M98.2 17.305c-2.493-6.252-7.495-11.51-14.416-14.766-6.117-2.88-12.708-3.226-18.7-1.467C59.097 2.833 53.71 7.626 50 13.168 46.29 7.626 40.905 2.832 34.916 1.073S22.334-.34 16.216 2.54c-6.92 3.254-11.92 8.513-14.415 14.765-2.492 6.252-2.503 13.51.64 20.73C9.16 53.477 49.786 89.72 50 90.338c.213-.62 40.84-36.86 47.56-52.303 3.145-7.22 3.133-14.478.64-20.73z" fill-opacity=".639"/></svg>