<svg xmlns="http://www.w3.org/2000/svg" xmlns:xlink="http://www.w3.org/1999/xlink" width="120" height="120" viewBox="0 0 120 120" enable-background="new 0 0 416 286"><defs><linearGradient id="a"><stop offset="0" stop-color="#ff32a3"/><stop offset=".368" stop-color="#f732e1"/><stop offset=".782" stop-color="#a132f0"/><stop offset="1" stop-color="#6d32ff"/></linearGradient><linearGradient xlink:href="#a" id="c" x1="18" y1="58.5" x2="128" y2="98.5" gradientUnits="userSpaceOnUse"/><linearGradient xlink:href="#b" x1="18" y1="58.5" x2="128" y2="98.5" gradientUnits="userSpaceOnUse"/><linearGradient id="b"><stop offset="0" stop-color="#ff32a3"/><stop offset=".368" stop-color="#f732e1"/><stop offset=".782" stop-color="#a132f0"/><stop offset="1" stop-color="#6d32ff"/></linearGradient></defs><g><path d="M117.365 59.982c0 31.69-25.69 57.38-57.38 57.38-31.692 0-57.382-25.69-57.382-57.38s25.69-57.38 57.38-57.38c31.692 0 57.382 25.69 57.382 57.38z" opacity=".465"/><path d="M119 81.5a46.5 46.5 0 1 1-93 0 46.5 46.5 0 1 1 93 0z" transform="matrix(1.254 0 0 1.254 -31.088 -42.377)" stroke="url(#c)" stroke-width="2.431" fill="none"/><path d="M87.014 60L44.987 84.264V35.736z" fill="#fff"/></g></svg>