<svg xmlns="http://www.w3.org/2000/svg" width="180" height="52.486" viewBox="0 0 180 52.486"><g fill="#B9B9B9"><path d="M14.68 13.527H0V.1h45.486v13.427H30.81v38.96H14.68v-38.96zM47.993.1H92.15v13.427H64.132v6.528H92.15v12.477H64.132v6.528h28.023v13.426H47.993V.1zM94.865.1h26.486c17.46 0 23.63 12.915 23.63 26.117 0 16.073-8.51 26.27-26.78 26.27H94.864V.1zm16.14 38.96h6.31c10.056 0 11.525-8.146 11.525-13.066 0-3.295-1.032-12.466-12.7-12.466h-5.137V39.06z"/></g><path fill="#B9B9B9" d="M168.172 32.3l-4.924-8.166-4.8 8.165H146.62l11.228-16.51L147.038 0h11.83l4.38 7.806L167.756 0h11.826l-10.807 15.79L180 32.3h-11.828z"/></svg>