<svg xmlns="http://www.w3.org/2000/svg" width="70" height="56.887" viewBox="222 231.429 70 56.887449" enable-background="new 222 231.429 90 73.143"><path d="M284.833 245.596c.91 20.2-14.156 42.72-40.82 42.72-8.11 0-15.658-2.378-22.013-6.452 7.618.898 15.223-1.215 21.26-5.947-6.283-.116-11.588-4.268-13.415-9.973 2.25.43 4.464.305 6.486-.246-6.905-1.388-11.674-7.61-11.518-14.264 1.936 1.077 4.15 1.723 6.505 1.798-6.396-4.275-8.207-12.72-4.444-19.174 7.082 8.688 17.665 14.406 29.6 15.005-2.094-8.984 4.72-17.634 13.99-17.634 4.13 0 7.864 1.743 10.483 4.534 3.272-.644 6.345-1.84 9.12-3.484-1.07 3.354-3.35 6.168-6.314 7.945 2.905-.347 5.673-1.12 8.248-2.262-1.926 2.88-4.36 5.41-7.167 7.433z" fill="#b9b9b9"/></svg>