<svg xmlns="http://www.w3.org/2000/svg" width="130" height="54.22" viewBox="0 0 130 54.22"><g fill="#B9B9B9"><path d="M99.245 21.844c-.773 0-1.557.367-2.342 1.143v15.795c.785.785 1.568 1.155 2.342 1.155 1.354 0 2.043-1.155 2.043-3.496V25.383c0-2.34-.69-3.538-2.043-3.538zM116.41 21.844c-1.57 0-2.355 1.198-2.355 3.595v2.398h4.694v-2.4c0-2.396-.784-3.594-2.34-3.594zM129.228 11.697s-.757-5.312-3.08-7.652C123.205.975 119.904.96 118.39.78 107.553 0 91.298 0 91.298 0h-.034S75.01 0 64.172.78c-1.514.18-4.814.195-7.76 3.265-2.32 2.34-3.077 7.652-3.077 7.652s-.775 6.238-.775 12.477v5.85c0 6.237.775 12.475.775 12.475s.755 5.312 3.078 7.65c2.945 3.072 6.815 2.975 8.54 3.296 6.194.592 26.328.774 26.328.774s16.273-.023 27.11-.804c1.513-.18 4.814-.194 7.76-3.266 2.32-2.34 3.078-7.652 3.078-7.652S130 36.26 130 30.023v-5.85c0-6.237-.772-12.476-.772-12.476zm-59.6 32.15h-5.223V13.966h-5.523V9.07h16.37v4.895H69.63v29.883zm18.516 0h-4.698v-2.825c-1.868 2.14-3.64 3.185-5.365 3.185-1.514 0-2.555-.615-3.025-1.928-.258-.786-.414-2.026-.414-3.855V17.933h4.694v19.08c0 1.1 0 1.673.043 1.826.115.727.472 1.097 1.1 1.097.942 0 1.926-.726 2.97-2.196V17.934h4.697v25.915zm17.838-7.775c0 2.396-.16 4.123-.474 5.222-.626 1.927-1.883 2.913-3.753 2.913-1.67 0-3.285-.928-4.853-2.87v2.512h-4.695V9.07h4.695v11.358c1.517-1.866 3.126-2.81 4.853-2.81 1.87 0 3.126.984 3.753 2.925.313 1.042.474 2.755.474 5.21v10.32zm17.463-4.324h-9.39v4.594c0 2.398.786 3.596 2.397 3.596 1.156 0 1.83-.628 2.098-1.883.043-.256.104-1.298.104-3.183h4.79v.687c0 1.513-.057 2.555-.098 3.024-.16 1.04-.527 1.982-1.098 2.812-1.3 1.883-3.225 2.81-5.678 2.81-2.457 0-4.326-.884-5.683-2.655-.998-1.296-1.51-3.34-1.51-6.093V26.38c0-2.77.455-4.794 1.452-6.105 1.357-1.773 3.227-2.656 5.623-2.656 2.356 0 4.225.882 5.54 2.655.982 1.31 1.453 3.337 1.453 6.106v5.368z"/></g><path fill="#B9B9B9" d="M11.853 29.683v14.233H6.59V29.683c-.477-2.52-1.53-6.216-3.217-11.118C2.263 15.305 1.11 12.033 0 8.773h5.537l3.736 13.8 3.59-13.8h5.32l-6.33 20.91zm17.884 11.913c-1.312 1.787-3.16 2.682-5.538 2.682-2.365 0-4.213-.895-5.524-2.682-1.01-1.31-1.486-3.375-1.486-6.158v-9.17c0-2.8.477-4.847 1.486-6.17 1.31-1.792 3.16-2.685 5.523-2.685 2.377 0 4.224.893 5.537 2.685.994 1.323 1.472 3.37 1.472 6.17v9.17c0 2.783-.48 4.85-1.473 6.158zm-3.275-16.282c0-2.424-.733-3.63-2.263-3.63s-2.265 1.207-2.265 3.63V36.33c0 2.423.734 3.636 2.264 3.636s2.262-1.213 2.262-3.636V25.314zm17.29 18.603v-2.855c-1.888 2.165-3.69 3.217-5.422 3.217-1.526 0-2.582-.62-3.055-1.947-.26-.794-.42-2.045-.42-3.895v-20.71h4.73V37.01c0 1.112 0 1.69.057 1.845.105.734.477 1.11 1.114 1.11.95 0 1.944-.733 2.996-2.22V17.727h4.745v26.188h-4.744z"/></svg>