<?xml version="1.0" encoding="utf-8"?>
<!-- Generator: Adobe Illustrator 15.0.2, SVG Export Plug-In  -->
<!DOCTYPE svg PUBLIC "-//W3C//DTD SVG 1.1//EN" "http://www.w3.org/Graphics/SVG/1.1/DTD/svg11.dtd" [
	<!ENTITY ns_flows "http://ns.adobe.com/Flows/1.0/">
]>
<svg version="1.1"
	 xmlns="http://www.w3.org/2000/svg" xmlns:xlink="http://www.w3.org/1999/xlink" xmlns:a="http://ns.adobe.com/AdobeSVGViewerExtensions/3.0/"
	 x="0px" y="0px" width="180px" height="62px" viewBox="0 0 180 62" overflow="visible" enable-background="new 0 0 180 62"
	 xml:space="preserve">
<defs>
</defs>
<path fill="#B9B9B9" d="M179.021,39.584c-1.788,0.949-4.467,1.297-6.544,1.335c-4.21,0.085-7.61-2.802-9.8-6.211
	c-1.436-2.205-2.33-4.726-2.557-7.422c-0.355-4.146,0.658-8.926,5.335-10.095c3.149-0.791,6.084,0.945,7.247,3.951
	c0.517,1.394,0.197,2.087-1.063,2.603l-11.279,4.734l3.84,0.241c4.584-1.909,9.703-3.688,14.279-5.587
	c0.951-0.395,1.029-0.468,0.664-1.472c-1.981-5.663-9.458-8.738-15.846-6.074c-5.028,2.104-8.673,7.415-8.673,13.373
	c0,8.025,5.776,15.146,13.646,15.146c3.607,0,6.165-0.489,8.449-1.929c0.495-0.466,3.23-2.681,3.281-3.155
	C180.005,38.905,179.597,39.246,179.021,39.584"/>
<path fill="#B9B9B9" d="M149.306,38.333c0.083-11.257-0.2-22.575,0.27-33.84c0.075-0.96,0.172-2.061,0.532-2.626
	c0.511-0.786,0.906-1.106,2.068-1.866h-8.424c-1.673,0.744-3.166,1.905-4.781,2.719c1.701-0.055,3.242-0.031,4.92-0.071
	c-0.729,11.315-0.263,22.595-0.322,34.34c0.087,3.498-0.615,4.403-1.971,5.822c3.61,0,7.034,0.062,10.647,0.062
	c0.739-0.442,1.716-1.434,2.314-1.952C150.572,41.04,149.377,41.412,149.306,38.333"/>
<path fill="#B9B9B9" d="M140.617,15.532c-5.136-0.053-9.993-0.053-15.222-0.053c-5.038,0-9.58,2.439-11.617,6.82
	c-0.942,2.016-1.312,4.606-0.726,7.054c1.19,4.874,6.267,8.092,11.203,7.34c0.546-0.074,0.718-0.244,0.426,0.248
	c-1.089,1.918-0.282,4.776,1.84,6.163c-1.39-0.085-2.913-0.12-4.612,0.07c-6.018,0.721-12.69,3.819-12.342,10.303
	c0.262,5.047,5.36,8.755,13.425,8.767c6.502-0.011,12.6-2.08,15.16-6.663c2.709-4.83,1.117-9.819-2.951-12.852
	c-1.846-1.387-5.066-3.296-4.869-5.923c0.07-0.886,0.732-1.851,1.98-2.588c2.231-1.292,3.75-3.014,4.5-5.004
	c0.779-2.096,0.663-4.401-0.107-6.467c-0.732-1.938-2.05-3.705-3.786-4.898h4.087L140.617,15.532z M130.402,46.087
	c3.549,2.242,4.691,4.975,4.393,7.512c-0.345,3.052-3.289,5.442-8.28,5.744c-5.361,0.333-12.552-1.789-11.22-8.824
	c0.716-3.749,5.691-5.679,9.789-5.803c1.151-0.041,2.299,0.048,3.428,0.083C129.12,45.234,129.769,45.662,130.402,46.087
	 M127.688,34.78c-3.61,0.995-7.585-1.817-8.86-6.826c-1.425-5.512,0.024-9.009,3.437-10.067c4.01-1.263,8.306,2.387,9.284,8.32
	C132.203,30.097,131.206,33.793,127.688,34.78"/>
<path fill="#B9B9B9" d="M94.806,14.699c-8.355,0-15.197,6.516-15.197,14.515c0,9.162,7.954,15.424,17.05,14.456
	c7.559-0.802,13.758-7.515,13.309-14.998C109.521,21.125,104.469,14.699,94.806,14.699 M97.702,41.423
	c-5.079,1.155-10.458-3.045-11.792-10.18c-1.471-7.831,0.95-12.996,5.737-14.263c5.681-1.495,11.459,4.215,12.284,12.643
	C104.498,35.136,102.65,40.276,97.702,41.423"/>
<path fill="#B9B9B9" d="M61.688,14.699c-8.48,0-15.394,6.516-15.394,14.515c0,9.162,8.035,15.424,17.246,14.456
	c7.663-0.802,13.92-7.515,13.452-14.998C76.533,21.125,71.447,14.699,61.688,14.699 M64.598,41.423
	c-5.129,1.155-10.57-3.045-11.922-10.18c-1.495-7.831,0.969-12.996,5.814-14.263c5.734-1.495,11.566,4.215,12.418,12.643
	C71.467,35.136,69.598,40.276,64.598,41.423"/>
<path fill="#B9B9B9" d="M26.338,32.266l9.285-0.278v8.038c0,1.15,0.013,1.321-1.873,1.928c-2.65,0.71-5.629,0.857-8.356,0.616
	c-9.265-0.782-16.315-8.11-17.995-17.229c-1.609-8.662,2.5-16.865,9.404-20.235c3.37-1.649,7.418-2.432,11.807-1.015
	c2.744,0.86,5.249,2.459,7.418,4.64l-1.512,2.734l2.863-0.773l4.377-4.501c-7.455-6.167-20.263-6.973-28.745-2.692
	C5.636,7.239,0.263,14.641,0.013,22.915C-0.283,31.6,4.81,38.502,9.938,41.953c8.479,5.73,23.173,4.466,32.031-0.018l-0.036-0.825
	h0.036v-9.122l2.045-2.414H31.12L26.338,32.266z"/>
</svg>
