<?xml version="1.0" encoding="UTF-8" standalone="no"?>
<!-- Generator: Adobe Illustrator 16.0.0, SVG Export Plug-In . SVG Version: 6.00 Build 0)  -->

<svg
   xmlns:dc="http://purl.org/dc/elements/1.1/"
   xmlns:cc="http://creativecommons.org/ns#"
   xmlns:rdf="http://www.w3.org/1999/02/22-rdf-syntax-ns#"
   xmlns:svg="http://www.w3.org/2000/svg"
   xmlns="http://www.w3.org/2000/svg"
   xmlns:sodipodi="http://sodipodi.sourceforge.net/DTD/sodipodi-0.dtd"
   xmlns:inkscape="http://www.inkscape.org/namespaces/inkscape"
   version="1.1"
   id="Layer_1"
   x="0px"
   y="0px"
   width="120"
   height="30"
   viewBox="0 0 120 30"
   enable-background="new 0 0 416 286"
   xml:space="preserve"
   inkscape:version="0.48.5 r10040"
   sodipodi:docname="hawking.svg"><metadata
     id="metadata309"><rdf:RDF><cc:Work
         rdf:about=""><dc:format>image/svg+xml</dc:format><dc:type
           rdf:resource="http://purl.org/dc/dcmitype/StillImage" /></cc:Work></rdf:RDF></metadata><defs
     id="defs307"><linearGradient
       id="linearGradient3901"><stop
         id="stop3903"
         offset="0"
         style="stop-color:#4b4b4b;stop-opacity:1;" /><stop
         id="stop3905"
         offset="1"
         style="stop-color:#ff00a4;stop-opacity:1;" /></linearGradient><linearGradient
       id="linearGradient3885"><stop
         style="stop-color:#6a00c9;stop-opacity:1;"
         offset="0"
         id="stop3887" /><stop
         style="stop-color:#4b4b4b;stop-opacity:1;"
         offset="1"
         id="stop3889" /></linearGradient><linearGradient
       id="linearGradient3875"><stop
         style="stop-color:#ff32a3;stop-opacity:1;"
         offset="0"
         id="stop3877" /><stop
         id="stop3885"
         offset="0.36844382"
         style="stop-color:#f732e1;stop-opacity:1;" /><stop
         id="stop3883"
         offset="0.78172928"
         style="stop-color:#a132f0;stop-opacity:1;" /><stop
         style="stop-color:#6d32ff;stop-opacity:1;"
         offset="1"
         id="stop3879" /></linearGradient></defs><sodipodi:namedview
     pagecolor="#ffffff"
     bordercolor="#666666"
     borderopacity="1"
     objecttolerance="10"
     gridtolerance="10"
     guidetolerance="10"
     inkscape:pageopacity="0"
     inkscape:pageshadow="2"
     inkscape:window-width="1920"
     inkscape:window-height="1017"
     id="namedview305"
     showgrid="false"
     inkscape:zoom="4"
     inkscape:cx="20.618491"
     inkscape:cy="72.25"
     inkscape:window-x="0"
     inkscape:window-y="27"
     inkscape:window-maximized="1"
     inkscape:current-layer="text3927"
     inkscape:showpageshadow="false" /><g
     display="none"
     id="g65"
     style="display:none"
     transform="translate(0,-256)"><g
       display="inline"
       id="g67"
       style="display:inline"><polygon
         points="42.878,214.5 84.157,286 166.721,286 84.157,143 "
         id="polygon69"
         style="fill:#303f9f" /><polygon
         points="249.278,0 331.842,143 373.121,71.5 331.842,0 "
         id="polygon71"
         style="fill:#3f51b5" /><polygon
         points="249.278,286 331.842,286 414.4,143 373.121,71.5 "
         id="polygon73"
         style="fill:#7986cb" /><polygon
         points="1.596,143 42.878,214.5 166.721,0 84.157,0 "
         id="polygon75"
         style="fill:#536dfe" /><polygon
         points="249.278,0 290.561,71.5 331.842,0 "
         id="polygon77"
         style="fill-opacity:0.5" /><polygon
         points="84.157,286 125.438,214.5 166.721,286 "
         id="polygon79"
         style="fill-opacity:0.5" /><polygon
         points="84.157,0 125.438,71.5 166.721,0 "
         id="polygon81"
         style="fill:#ffffff;fill-opacity:0.2" /><polygon
         points="42.878,71.5 84.157,0 125.438,71.5 "
         id="polygon83"
         style="fill:#ffffff;fill-opacity:0.1" /><polygon
         points="42.878,71.5 84.157,143 125.438,71.5 "
         id="polygon85"
         style="fill:#ffffff;fill-opacity:0" /><polygon
         points="1.598,143 42.878,71.5 84.157,143 "
         id="polygon87"
         style="fill-opacity:0.1" /><polygon
         points="1.598,143 42.878,214.5 84.157,143 "
         id="polygon89"
         style="fill-opacity:0.2" /><polygon
         points="125.438,214.5 84.157,143 42.878,214.5 "
         id="polygon91"
         style="fill:#ffffff;fill-opacity:0" /><polygon
         points="373.121,71.5 331.842,143 290.561,71.5 "
         id="polygon93"
         style="fill:#ffffff;fill-opacity:0" /><g
         id="g95"><polygon
           points="331.842,143 373.121,71.5 414.4,143 "
           id="polygon97"
           style="fill:#ffffff;fill-opacity:0.2" /><polygon
           points="331.842,143 373.121,214.5 414.4,143 "
           id="polygon99"
           style="fill:#ffffff;fill-opacity:0.1" /><polygon
           points="290.561,214.5 331.842,143 373.121,214.5 "
           id="polygon101"
           style="fill:#ffffff;fill-opacity:0" /><polygon
           points="290.561,214.5 331.842,286 373.121,214.5 "
           id="polygon103"
           style="fill-opacity:0.1" /><polygon
           points="249.278,286 290.561,214.5 331.842,286 "
           id="polygon105"
           style="fill-opacity:0.2" /></g><polygon
         points="125.438,214.5 84.157,286 42.878,214.5 "
         id="polygon107"
         style="fill-opacity:0.2" /><polygon
         points="373.121,71.5 331.842,0 290.561,71.5 "
         id="polygon109"
         style="fill-opacity:0.2" /></g><rect
       y="-65"
       display="inline"
       width="416"
       height="416"
       id="rect111"
       x="0"
       style="fill:none;display:inline" /></g><g
     display="none"
     id="g113"
     style="display:none"
     transform="translate(0,-256)"><g
       display="inline"
       id="g115"
       style="display:inline"><polygon
         points="84.157,286 166.721,286 331.843,0 249.279,0 "
         id="polygon117"
         style="fill:#ff4081" /><polygon
         points="249.279,0 290.558,71.5 331.843,0 "
         id="polygon119"
         style="fill:#ffffff;fill-opacity:0.2" /><polygon
         points="208,71.5 249.279,0 290.558,71.5 "
         id="polygon121"
         style="fill:#ffffff;fill-opacity:0.1" /><polygon
         points="208,71.5 249.279,143 290.558,71.5 "
         id="polygon123"
         style="fill:#ffffff;fill-opacity:0" /><polygon
         points="166.721,143 208,214.5 249.279,143 "
         id="polygon125"
         style="fill-opacity:0.2" /><polygon
         points="125.439,214.5 166.721,143 208,214.5 "
         id="polygon127"
         style="fill-opacity:0.3" /><polygon
         points="125.439,214.5 166.721,286 208,214.5 "
         id="polygon129"
         style="fill-opacity:0.4" /><polygon
         points="84.157,286 125.439,214.5 166.721,286 "
         id="polygon131"
         style="fill-opacity:0.5" /><polygon
         points="166.721,143 208,71.5 249.279,143 "
         id="polygon133"
         style="fill-opacity:0.1" /></g><g
       display="inline"
       id="g135"
       style="display:inline"><polygon
         points="166.718,286 249.279,286 373.121,71.5 331.84,0 "
         id="polygon137"
         style="fill:#ff4081" /><polygon
         points="290.558,71.5 331.84,0 373.121,71.5 "
         id="polygon139"
         style="fill:#ffffff;fill-opacity:0.1" /><polygon
         points="290.558,71.5 331.84,143 373.121,71.5 "
         id="polygon141"
         style="fill:#ffffff;fill-opacity:0" /><polygon
         points="249.279,143 290.558,214.5 331.84,143 "
         id="polygon143"
         style="fill-opacity:0.2" /><polygon
         points="208,214.5 249.279,143 290.558,214.5 "
         id="polygon145"
         style="fill-opacity:0.3" /><polygon
         points="208,214.5 249.279,286 290.558,214.5 "
         id="polygon147"
         style="fill-opacity:0.4" /><polygon
         points="166.718,286 208,214.5 249.279,286 "
         id="polygon149"
         style="fill-opacity:0.5" /><polygon
         points="249.279,143 290.558,71.5 331.84,143 "
         id="polygon151"
         style="fill-opacity:0.1" /></g><g
       display="inline"
       id="g153"
       style="display:inline"><polygon
         points="42.878,214.5 84.16,286 249.279,0 166.718,0 "
         id="polygon155"
         style="fill:#ff4081" /><polygon
         points="166.718,0 208,71.5 249.279,0 "
         id="polygon157"
         style="fill:#ffffff;fill-opacity:0.2" /><polygon
         points="125.439,71.5 166.718,0 208,71.5 "
         id="polygon159"
         style="fill:#ffffff;fill-opacity:0.1" /><polygon
         points="125.439,71.5 166.718,143 208,71.5 "
         id="polygon161"
         style="fill:#ffffff;fill-opacity:0" /><polygon
         points="84.16,143 125.439,214.5 166.718,143 "
         id="polygon163"
         style="fill-opacity:0.2" /><polygon
         points="42.878,214.5 84.16,143 125.439,214.5 "
         id="polygon165"
         style="fill-opacity:0.3" /><polygon
         points="42.878,214.5 84.16,286 125.439,214.5 "
         id="polygon167"
         style="fill-opacity:0.4" /><polygon
         points="84.16,143 125.439,71.5 166.718,143 "
         id="polygon169"
         style="fill-opacity:0.1" /></g><rect
       y="-65"
       display="inline"
       width="416"
       height="416"
       id="rect171"
       x="0"
       style="fill:none;display:inline" /><g
       display="inline"
       id="g173"
       style="display:inline"><polygon
         points="42.878,214.5 84.157,286 166.721,286 84.157,143 "
         id="polygon175"
         style="fill:#303f9f" /><polygon
         points="249.279,0 331.843,143 373.121,71.5 331.843,0 "
         id="polygon177"
         style="fill:#3f51b5" /><polygon
         points="249.279,286 331.843,286 414.4,143 373.121,71.5 "
         id="polygon179"
         style="fill:#7986cb" /><polygon
         points="1.597,143 42.878,214.5 166.721,0 84.157,0 "
         id="polygon181"
         style="fill:#536dfe" /><polygon
         points="249.279,0 290.558,71.5 331.843,0 "
         id="polygon183"
         style="fill-opacity:0.5" /><polygon
         points="84.157,286 125.439,214.5 166.721,286 "
         id="polygon185"
         style="fill-opacity:0.5" /><polygon
         points="84.157,0 125.439,71.5 166.721,0 "
         id="polygon187"
         style="fill:#ffffff;fill-opacity:0.2" /><polygon
         points="42.878,71.5 84.157,0 125.439,71.5 "
         id="polygon189"
         style="fill:#ffffff;fill-opacity:0.1" /><polygon
         points="42.878,71.5 84.157,143 125.439,71.5 "
         id="polygon191"
         style="fill:#ffffff;fill-opacity:0" /><polygon
         points="1.6,143 42.878,71.5 84.157,143 "
         id="polygon193"
         style="fill-opacity:0.1" /><polygon
         points="1.6,143 42.878,214.5 84.157,143 "
         id="polygon195"
         style="fill-opacity:0.2" /><polygon
         points="125.439,214.5 84.157,143 42.878,214.5 "
         id="polygon197"
         style="fill:#ffffff;fill-opacity:0" /><polygon
         points="373.121,71.5 331.843,143 290.558,71.5 "
         id="polygon199"
         style="fill:#ffffff;fill-opacity:0" /><g
         id="g201"><polygon
           points="331.843,143 373.121,71.5 414.4,143 "
           id="polygon203"
           style="fill:#ffffff;fill-opacity:0.2" /><polygon
           points="331.843,143 373.121,214.5 414.4,143 "
           id="polygon205"
           style="fill:#ffffff;fill-opacity:0.1" /><polygon
           points="290.558,214.5 331.843,143 373.121,214.5 "
           id="polygon207"
           style="fill:#ffffff;fill-opacity:0" /><polygon
           points="290.558,214.5 331.843,286 373.121,214.5 "
           id="polygon209"
           style="fill-opacity:0.1" /><polygon
           points="249.279,286 290.558,214.5 331.843,286 "
           id="polygon211"
           style="fill-opacity:0.2" /></g><polygon
         points="125.439,214.5 84.157,286 42.878,214.5 "
         id="polygon213"
         style="fill-opacity:0.2" /><polygon
         points="373.121,71.5 331.843,0 290.558,71.5 "
         id="polygon215"
         style="fill-opacity:0.2" /></g></g><g
     display="none"
     id="g217"
     style="display:none"
     transform="translate(0,-256)"><g
       display="inline"
       id="g219"
       style="display:inline"><polygon
         points="84.157,286 166.721,286 331.843,0 249.279,0 "
         id="polygon221"
         style="fill:#9f499b" /><polygon
         points="249.279,0 290.558,71.5 331.843,0 "
         id="polygon223"
         style="fill:#ffffff;fill-opacity:0.2" /><polygon
         points="208,71.5 249.279,0 290.558,71.5 "
         id="polygon225"
         style="fill:#ffffff;fill-opacity:0.1" /><polygon
         points="208,71.5 249.279,143 290.558,71.5 "
         id="polygon227"
         style="fill:#ffffff;fill-opacity:0" /><polygon
         points="166.721,143 208,214.5 249.279,143 "
         id="polygon229"
         style="fill-opacity:0.2" /><polygon
         points="125.439,214.5 166.721,143 208,214.5 "
         id="polygon231"
         style="fill-opacity:0.3" /><polygon
         points="125.439,214.5 166.721,286 208,214.5 "
         id="polygon233"
         style="fill-opacity:0.4" /><polygon
         points="84.157,286 125.439,214.5 166.721,286 "
         id="polygon235"
         style="fill-opacity:0.5" /><polygon
         points="166.721,143 208,71.5 249.279,143 "
         id="polygon237"
         style="fill-opacity:0.1" /></g><g
       display="inline"
       id="g239"
       style="display:inline"><polygon
         points="166.718,286 249.279,286 373.121,71.5 331.84,0 "
         id="polygon241"
         style="fill:#9f499b" /><polygon
         points="290.558,71.5 331.84,0 373.121,71.5 "
         id="polygon243"
         style="fill:#ffffff;fill-opacity:0.1" /><polygon
         points="290.558,71.5 331.84,143 373.121,71.5 "
         id="polygon245"
         style="fill:#ffffff;fill-opacity:0" /><polygon
         points="249.279,143 290.558,214.5 331.84,143 "
         id="polygon247"
         style="fill-opacity:0.2" /><polygon
         points="208,214.5 249.279,143 290.558,214.5 "
         id="polygon249"
         style="fill-opacity:0.3" /><polygon
         points="208,214.5 249.279,286 290.558,214.5 "
         id="polygon251"
         style="fill-opacity:0.4" /><polygon
         points="166.718,286 208,214.5 249.279,286 "
         id="polygon253"
         style="fill-opacity:0.5" /><polygon
         points="249.279,143 290.558,71.5 331.84,143 "
         id="polygon255"
         style="fill-opacity:0.1" /></g><g
       display="inline"
       id="g257"
       style="display:inline"><polygon
         points="249.279,286 331.843,286 414.4,143 373.121,71.5 "
         id="polygon259"
         style="fill:#9f499b" /><polygon
         points="331.843,143 373.121,214.5 414.4,143 "
         id="polygon261"
         style="fill-opacity:0.2" /><polygon
         points="290.558,214.5 331.843,143 373.121,214.5 "
         id="polygon263"
         style="fill-opacity:0.3" /><polygon
         points="290.558,214.5 331.843,286 373.121,214.5 "
         id="polygon265"
         style="fill-opacity:0.4" /><polygon
         points="249.279,286 290.558,214.5 331.843,286 "
         id="polygon267"
         style="fill-opacity:0.5" /><polygon
         points="331.843,143 373.121,71.5 414.4,143 "
         id="polygon269"
         style="fill-opacity:0.1" /></g><g
       display="inline"
       id="g271"
       style="display:inline"><polygon
         points="42.878,214.5 84.16,286 249.279,0 166.718,0 "
         id="polygon273"
         style="fill:#9f499b" /><polygon
         points="166.718,0 208,71.5 249.279,0 "
         id="polygon275"
         style="fill:#ffffff;fill-opacity:0.2" /><polygon
         points="125.439,71.5 166.718,0 208,71.5 "
         id="polygon277"
         style="fill:#ffffff;fill-opacity:0.1" /><polygon
         points="125.439,71.5 166.718,143 208,71.5 "
         id="polygon279"
         style="fill:#ffffff;fill-opacity:0" /><polygon
         points="84.16,143 125.439,214.5 166.718,143 "
         id="polygon281"
         style="fill-opacity:0.2" /><polygon
         points="42.878,214.5 84.16,143 125.439,214.5 "
         id="polygon283"
         style="fill-opacity:0.3" /><polygon
         points="42.878,214.5 84.16,286 125.439,214.5 "
         id="polygon285"
         style="fill-opacity:0.4" /><polygon
         points="84.16,143 125.439,71.5 166.718,143 "
         id="polygon287"
         style="fill-opacity:0.1" /></g><g
       display="inline"
       id="g289"
       style="display:inline"><polygon
         points="1.6,143 42.878,214.5 166.721,0 84.157,0 "
         id="polygon291"
         style="fill:#9f499b" /><polygon
         points="84.157,0 125.439,71.5 166.721,0 "
         id="polygon293"
         style="fill:#ffffff;fill-opacity:0.2" /><polygon
         points="42.878,71.5 84.157,0 125.439,71.5 "
         id="polygon295"
         style="fill:#ffffff;fill-opacity:0.1" /><polygon
         points="42.878,71.5 84.157,143 125.439,71.5 "
         id="polygon297"
         style="fill:#ffffff;fill-opacity:0" /><polygon
         points="1.6,143 42.878,214.5 84.157,143 "
         id="polygon299"
         style="fill-opacity:0.2" /><polygon
         points="1.6,143 42.878,71.5 84.157,143 "
         id="polygon301"
         style="fill-opacity:0.1" /></g><rect
       y="-65"
       display="inline"
       width="416"
       height="416"
       id="rect303"
       x="0"
       style="fill:none;display:inline" /></g><g
     id="logo"
     transform="matrix(0.19047619,0,0,0.19047619,0,-90)"><text
       xml:space="preserve"
       style="font-size:40px;font-style:normal;font-weight:normal;line-height:125%;letter-spacing:0px;word-spacing:0px;fill:#000000;fill-opacity:1;stroke:none;font-family:Sans"
       x="16"
       y="66"
       id="text3111"
       sodipodi:linespacing="125%"
       transform="scale(5.25,5.25)"><tspan
         sodipodi:role="line"
         id="tspan3113"
         x="16"
         y="66" /></text>
<g
       style="font-size:156.30511475000000132px;font-style:normal;font-weight:normal;line-height:125%;letter-spacing:0px;word-spacing:0px;fill:#ffffff;fill-opacity:1;stroke:none;font-family:Sans"
       id="text3927"
       transform="matrix(1.1173878,0,0,1.1173184,-36.97716,199.29472)"><path
         d="m 73.911244,294.78749 c 9.274947,5e-5 17.849937,0.0876 25.724997,0.2625 4.112429,-16.62493 8.137429,-28.17492 12.074999,-34.65 2.62492,-3.76241 5.24992,-6.47491 7.875,-8.1375 1.04991,-0.6999 2.09991,-1.0499 3.15,-1.05 1.13741,1e-4 1.70616,1.70634 1.70625,5.11875 -9e-5,3.41259 -0.30634,7.00008 -0.91875,10.7625 -0.52509,3.76258 -1.22509,8.09382 -2.1,12.99375 -2.88758,16.10005 -5.07508,28.96254 -6.5625,38.5875 -1.40008,9.62502 -2.10008,18.90001 -2.1,27.825 -8e-5,2.45 -1.75008,3.675 -5.25,3.675 -5.51257,0 -9.275059,-1.05 -11.287499,-3.15 -2.01256,-2.1875 -3.01881,-6.08124 -3.01875,-11.68125 -6e-5,-5.68748 1.13744,-14.61247 3.4125,-26.775 -9.62505,-0.43746 -15.706297,-0.65621 -18.243747,-0.65625 l -5.38125,0 c -0.962541,4e-5 -1.92504,0.0438 -2.8875,0.13125 -3.937535,15.05002 -5.906283,26.95001 -5.90625,35.7 -3.3e-5,5.1625 -5.031278,7.74375 -15.09375,7.74375 -2.187516,0 -3.500015,-1.09375 -3.9375,-3.28125 -0.350014,-2.275 -0.525014,-5.90624 -0.525,-10.89375 -1.4e-5,-5.07498 1.574985,-14.13123 4.725,-27.16875 -5.337513,0.78754 -9.231259,1.18129 -11.68125,1.18125 -1.137506,4e-5 -1.706255,-0.43746 -1.70625,-1.3125 -5e-6,-1.92496 1.399994,-4.11246 4.2,-6.5625 2.887488,-2.44995 7.087484,-4.4187 12.6,-5.90625 3.237475,-11.19994 6.474972,-20.38743 9.7125,-27.5625 -9.450022,0.17508 -16.406265,2.01258 -20.86875,5.5125 -1.400009,1.05007 -2.537508,2.01257 -3.4125,2.8875 -0.875006,0.78757 -1.662506,1.18132 -2.3625,1.18125 -0.612504,7e-5 -1.225004,-0.52493 -1.8375,-1.575 -0.612502,-1.04993 -0.918752,-2.44993 -0.91875,-4.2 -2e-6,-6.38742 5.381242,-11.24367 16.14375,-14.56875 8.574973,-2.62491 18.549963,-3.98116 29.925,-4.06875 l 0.2625,0 c 0.612451,9e-5 1.4437,0.35009 2.49375,1.05 1.137447,0.70009 1.706197,1.83759 1.706247,3.4125 -5e-5,1.57509 -0.3063,3.36883 -0.91875,5.38125 -0.525048,1.92508 -1.268797,3.36883 -2.231247,4.33125 -0.525049,4.11257 -2.712547,12.60007 -6.5625,25.4625"
         style="font-size:131.25000000000000000px;font-variant:normal;font-stretch:normal;fill:#4b4b4b;font-family:Leckerli One;-inkscape-font-specification:Leckerli One;fill-opacity:1"
         id="path3113"
         inkscape:connector-curvature="0" /><path
         d="m 209.72833,318.54374 c 1.57492,3e-5 2.36242,2.01253 2.3625,6.0375 -8e-5,2.18752 -0.91883,4.85627 -2.75625,8.00625 -1.83758,3.06251 -4.24383,5.90626 -7.21875,8.53125 -2.88757,2.5375 -6.12507,4.6375 -9.7125,6.3 -3.58756,1.6625 -7.08756,2.49375 -10.5,2.49375 -4.63755,0 -7.7438,-4.06875 -9.31875,-12.20625 -2.27504,3.76251 -5.25004,6.86875 -8.925,9.31875 -3.67503,2.3625 -8.61878,3.54375 -14.83125,3.54375 -6.12501,0 -11.06876,-1.925 -14.83125,-5.775 -3.7625,-3.84999 -5.6,-8.53124 -5.5125,-14.04375 0,-14.87497 4.94374,-26.59996 14.83125,-35.175 4.19998,-3.58744 8.09373,-5.94994 11.68125,-7.0875 3.67497,-1.13744 7.52497,-1.70619 11.55,-1.70625 4.02496,6e-5 7.3062,0.70006 9.84375,2.1 1.22495,-2.53744 2.62495,-3.80619 4.2,-3.80625 3.06244,6e-5 5.94994,1.35631 8.6625,4.06875 2.79994,2.62506 4.19993,5.1188 4.2,7.48125 -1.22506,2.88755 -3.01881,6.34379 -5.38125,10.36875 -0.70006,4.02504 -1.05006,9.66878 -1.05,16.93125 -6e-5,7.26252 0.91869,10.89376 2.75625,10.89375 2.27494,1e-5 7.78743,-4.54998 16.5375,-13.65 1.57492,-1.74997 2.71242,-2.62497 3.4125,-2.625 m -61.95,7.875 c -2e-5,6.73751 2.49373,10.10626 7.48125,10.10625 5.33747,-0.0875 9.75621,-2.93124 13.25625,-8.53125 1.22496,-1.92498 2.23121,-4.28748 3.01875,-7.0875 -4e-5,-9.79996 0.87496,-18.19996 2.625,-25.2 -7.08754,1.40005 -13.25628,4.81255 -18.50625,10.2375 -5.25002,5.42504 -7.87502,12.25003 -7.875,20.475"
         style="font-size:131.25000000000000000px;font-variant:normal;font-stretch:normal;fill:#4b4b4b;font-family:Leckerli One;-inkscape-font-specification:Leckerli One;fill-opacity:1"
         id="path3115"
         inkscape:connector-curvature="0" /><path
         d="m 226.26993,291.76874 c -2e-5,5.86255 -1.05002,12.51254 -3.15,19.95 0.17498,2.80003 0.26248,5.51253 0.2625,8.1375 0.17498,5.60002 0.87498,9.45002 2.1,11.55 0.87498,1.13751 2.01248,1.70626 3.4125,1.70625 2.71247,1e-5 6.08122,-1.92498 10.10625,-5.775 -3.06253,-7.26247 -4.59378,-13.82497 -4.59375,-19.6875 -3e-5,-11.98745 5.64372,-17.98119 16.93125,-17.98125 3.84995,6e-5 7.0437,1.13756 9.58125,3.4125 2.62494,2.18755 3.93744,4.9438 3.9375,8.26875 -6e-5,7.00004 -3.89381,15.40003 -11.68125,25.2 3.23745,3.85002 5.86245,6.08126 7.875,6.69375 2.88744,10e-6 7.21869,-5.33748 12.99375,-16.0125 -1.05007,-3.93747 -1.57507,-7.61246 -1.575,-11.025 -7e-5,-6.21245 0.96243,-10.76245 2.8875,-13.65 2.36243,-3.67494 6.25617,-5.51244 11.68125,-5.5125 5.51241,6e-5 8.61866,2.23131 9.31875,6.69375 0.17491,1.31255 0.26241,2.71255 0.2625,4.2 -9e-5,5.60004 -3.10634,13.34379 -9.31875,23.23125 2.18742,3.15002 4.24366,5.03127 6.16875,5.64375 4.02491,2e-5 7.4374,-1.35623 10.2375,-4.06875 1.0499,-0.96247 1.9249,-1.83747 2.625,-2.625 0.7874,-0.87497 1.5749,-1.31247 2.3625,-1.3125 1.2249,3e-5 1.8374,1.44378 1.8375,4.33125 -10e-5,5.33752 -1.5751,9.27501 -4.725,11.8125 -3.1501,2.53751 -7.26259,3.80626 -12.3375,3.80625 -5.07508,1e-5 -9.49383,-2.44999 -13.25625,-7.35 -4.55007,5.95001 -8.31257,10.10626 -11.2875,12.46875 -5.42506,4.4625 -9.6688,6.69375 -12.73125,6.69375 -1.48755,0 -3.41255,-1.225 -5.775,-3.675 -2.27504,-2.5375 -4.55004,-5.81874 -6.825,-9.84375 -4.20003,3.93751 -8.35628,7.175 -12.46875,9.7125 -4.11252,2.5375 -7.56877,3.80625 -10.36875,3.80625 -5.07501,0 -9.36251,-11.02499 -12.8625,-33.075 -1.225,-7.52496 -1.8375,-12.68746 -1.8375,-15.4875 0.175,-5.77495 0.9625,-9.79994 2.3625,-12.075 1.925,-2.79994 5.68749,-4.19994 11.2875,-4.2 2.09998,6e-5 3.71873,0.65631 4.85625,1.96875 1.13748,1.22506 1.70623,2.58131 1.70625,4.06875 m 22.44375,23.625 c 2.88745,-4.46246 4.3312,-8.00621 4.33125,-10.63125 -5e-5,-2.71245 -0.9188,-4.0687 -2.75625,-4.06875 -1.22504,5e-5 -2.01254,0.70005 -2.3625,2.1 -0.26254,1.31254 -0.39379,3.06254 -0.39375,5.25 -4e-5,2.18754 0.39371,4.63753 1.18125,7.35"
         style="font-size:131.25000000000000000px;font-variant:normal;font-stretch:normal;fill:#4b4b4b;font-family:Leckerli One;-inkscape-font-specification:Leckerli One;fill-opacity:1"
         id="path3117"
         inkscape:connector-curvature="0" /><path
         d="m 343.06398,320.77499 c 2.36245,9.36252 6.3437,14.04376 11.94375,14.04375 2.71244,1e-5 5.16244,-0.83124 7.35,-2.49375 2.18743,-1.66248 4.15618,-3.45623 5.90625,-5.38125 1.74993,-2.01248 3.28118,-3.84998 4.59375,-5.5125 1.31242,-1.66247 2.53742,-2.49372 3.675,-2.49375 1.13742,3e-5 1.70617,1.48753 1.70625,4.4625 -8e-5,6.21252 -2.88758,12.20626 -8.6625,17.98125 -5.77507,5.775 -12.25006,8.61875 -19.425,8.53125 -7.08755,0 -13.43129,-6.25625 -19.03125,-18.76875 -1.57503,-3.49998 -3.06253,-7.04373 -4.4625,-10.63125 l -0.91875,17.98125 c -3e-5,1.66251 -0.0875,3.32501 -0.2625,4.9875 -0.17503,1.575 -0.91878,2.8875 -2.23125,3.9375 -3.41252,2.7125 -6.86877,4.06875 -10.36875,4.06875 -4.11251,0 -6.16876,-4.24375 -6.16875,-12.73125 -1e-5,-12.24998 1.44374,-25.06872 4.33125,-38.45625 2.88748,-13.38744 5.68748,-23.44993 8.4,-30.1875 2.79998,-6.82492 4.94372,-11.37491 6.43125,-13.65 1.57497,-2.27491 2.79997,-3.67491 3.675,-4.2 0.87497,-0.5249 1.83747,-0.7874 2.8875,-0.7875 1.13746,1e-4 2.31871,0.56885 3.54375,1.70625 1.22496,1.05009 2.53746,2.71259 3.9375,4.9875 1.39996,2.18759 2.09996,4.37508 2.1,6.5625 0.0875,2.10008 -0.26254,4.20008 -1.05,6.3 -0.70004,2.01257 -1.66254,4.02507 -2.8875,6.0375 -1.22504,1.92507 -2.58129,3.93757 -4.06875,6.0375 -1.48753,2.01256 -2.97503,4.20006 -4.4625,6.5625 l -1.3125,11.025 c 3.06247,-6.38745 7.56871,-10.67494 13.51875,-12.8625 2.09995,-0.78744 4.54995,-1.18119 7.35,-1.18125 5.59994,6e-5 9.88744,1.35631 12.8625,4.06875 2.97493,2.62505 4.46243,6.5188 4.4625,11.68125 -7e-5,5.16254 -2.58132,9.53754 -7.74375,13.125 -5.16256,3.58753 -10.3688,5.33753 -15.61875,5.25 m 4.9875,-15.35625 c -5e-5,-3.14995 -1.7938,-4.72495 -5.38125,-4.725 -3.58754,5e-5 -7.48129,3.45629 -11.68125,10.36875 -1.22503,2.01253 -2.27503,4.06878 -3.15,6.16875 9.09996,-0.52497 15.31245,-2.97497 18.6375,-7.35 1.04995,-1.39996 1.57495,-2.88746 1.575,-4.4625"
         style="font-size:131.25000000000000000px;font-variant:normal;font-stretch:normal;fill:#4b4b4b;font-family:Leckerli One;-inkscape-font-specification:Leckerli One;fill-opacity:1"
         id="path3119"
         inkscape:connector-curvature="0" /><path
         d="m 387.39572,349.91249 c -8.75002,0 -13.12501,-8.18124 -13.125,-24.54375 -10e-6,-8.92497 1.09374,-17.01871 3.28125,-24.28125 3.41248,-11.19994 7.26248,-16.79994 11.55,-16.8 2.53747,6e-5 4.54997,1.70631 6.0375,5.11875 1.22497,2.62506 1.79372,5.2063 1.70625,7.74375 -3e-5,3.50005 -1.05003,9.66879 -3.15,18.50625 -2.01253,7.70002 -3.01878,12.46877 -3.01875,14.30625 -3e-5,1.83752 0.43747,3.10626 1.3125,3.80625 0.96247,0.70001 2.05622,1.05001 3.28125,1.05 1.31247,1e-5 2.93121,-0.83124 4.85625,-2.49375 1.92496,-1.66248 3.84996,-3.45623 5.775,-5.38125 1.92496,-2.01248 3.67495,-3.84998 5.25,-5.5125 1.66245,-1.66247 2.79995,-2.49372 3.4125,-2.49375 1.22495,3e-5 1.83745,1.48753 1.8375,4.4625 -5e-5,6.12502 -3.1063,12.11876 -9.31875,17.98125 -6.12504,5.775 -12.68753,8.61875 -19.6875,8.53125 m 5.38125,-76.25625 c -2.36253,-3.49992 -3.54378,-7.26242 -3.54375,-11.2875 -3e-5,-4.02491 0.61247,-7.34991 1.8375,-9.975 1.31247,-2.7124 2.53747,-4.68115 3.675,-5.90625 1.13747,-1.3124 2.44997,-1.96865 3.9375,-1.96875 2.44996,1e-4 4.68121,1.8376 6.69375,5.5125 2.01246,3.58759 3.0187,6.60634 3.01875,9.05625 -5e-5,4.55008 -1.61879,8.13758 -4.85625,10.7625 -3.15004,2.53757 -6.73753,3.80632 -10.7625,3.80625"
         style="font-size:131.25000000000000000px;font-variant:normal;font-stretch:normal;fill:#4b4b4b;font-family:Leckerli One;-inkscape-font-specification:Leckerli One;fill-opacity:1"
         id="path3121"
         inkscape:connector-curvature="0" /><path
         d="m 427.29777,284.02499 c 3.14997,6e-5 6.12497,3.01881 8.925,9.05625 4.11246,-4.28744 9.18746,-6.43119 15.225,-6.43125 6.12494,6e-5 10.71869,1.35631 13.78125,4.06875 3.06243,2.62505 4.59368,6.38755 4.59375,11.2875 -7e-5,4.81254 -0.65632,9.71254 -1.96875,14.7 -1.22506,4.98753 -2.14381,8.57502 -2.75625,10.7625 -0.52506,2.10002 -0.78756,3.85002 -0.7875,5.25 -6e-5,1.40001 0.48119,2.10001 1.44375,2.1 1.31244,1e-5 2.93118,-0.83124 4.85625,-2.49375 1.92493,-1.66248 3.84993,-3.45623 5.775,-5.38125 1.92492,-2.01248 3.67492,-3.84998 5.25,-5.5125 1.66242,-1.66247 2.79992,-2.49372 3.4125,-2.49375 1.22492,3e-5 1.83742,1.48753 1.8375,4.4625 -8e-5,6.12502 -3.01883,12.03126 -9.05625,17.71875 -10.15007,5.95 -16.62506,8.925 -19.425,8.925 -0.26256,0 -0.43756,-0.0437 -0.525,-0.13125 -7.00005,0 -10.50005,-5.6 -10.5,-16.8 -5e-5,-4.81248 0.43745,-9.23123 1.3125,-13.25625 0.96245,-4.02497 1.66245,-6.95622 2.1,-8.79375 0.43745,-1.83746 0.6562,-3.71871 0.65625,-5.64375 -5e-5,-3.14995 -1.83755,-4.72495 -5.5125,-4.725 -3.58754,5e-5 -7.04379,2.71254 -10.36875,8.1375 -3.23753,5.33753 -5.42503,10.89378 -6.5625,16.66875 l 0,0.91875 c -3e-5,2.97502 0.43747,6.03751 1.3125,9.1875 0.96247,3.15001 1.44372,5.33751 1.44375,6.5625 -3e-5,2.975 -3.71878,5.90625 -11.15625,8.79375 -1.13752,0.4375 -2.14377,0.65625 -3.01875,0.65625 -2.18751,0 -3.71876,-1.1375 -4.59375,-3.4125 -0.78751,-2.275 -1.18126,-5.81875 -1.18125,-10.63125 -10e-6,-12.42498 0.48124,-21.39372 1.44375,-26.90625 1.31249,-8.22496 4.28748,-15.8812 8.925,-22.96875 1.57498,-2.44994 3.28123,-3.67494 5.11875,-3.675"
         style="font-size:131.25000000000000000px;font-variant:normal;font-stretch:normal;fill:#4b4b4b;font-family:Leckerli One;-inkscape-font-specification:Leckerli One;fill-opacity:1"
         id="path3123"
         inkscape:connector-curvature="0" /><path
         d="m 530.60587,289.79999 c 1.22495,-3.84994 3.19369,-5.77494 5.90625,-5.775 2.44994,0.0876 4.76869,1.83756 6.95625,5.25 2.18743,3.32505 3.28118,5.9063 3.28125,7.74375 -0.17507,3.58755 -1.26882,9.31879 -3.28125,17.19375 -2.01256,7.78753 -4.85631,17.93752 -8.53125,30.45 5.77494,-4.46249 11.46243,-10.28124 17.0625,-17.45625 1.92492,-2.44998 3.54367,-4.41873 4.85625,-5.90625 14.2315,-18.8484 18.88585,-53.016 35.875,-44.5375 13.78117,12.73127 -9.45008,32.72501 -27.475,55.16875 -6.12507,7.35 -26.11881,23.58124 -35.04375,27.69375 -1.05005,3.49998 -2.18755,6.82498 -3.4125,9.975 -1.22505,3.14997 -2.80005,5.90622 -4.725,8.26875 -4.20004,5.07496 -10.58753,7.61246 -19.1625,7.6125 -5.77502,-4e-5 -10.71876,-1.66254 -14.83125,-4.9875 -4.02501,-3.32503 -6.0375,-7.48128 -6.0375,-12.46875 0,-2.71252 0.875,-4.85627 2.625,-6.43125 1.83749,-1.57501 4.33124,-2.84376 7.48125,-3.80625 3.14998,-0.96251 6.82498,-1.79376 11.025,-2.49375 4.28747,-0.70001 8.83747,-1.57501 13.65,-2.625 0.43746,-1.4875 0.78746,-2.93125 1.05,-4.33125 0.34996,-1.4875 0.69996,-2.975 1.05,-4.4625 -4.81254,4.4625 -10.71878,6.69375 -17.71875,6.69375 -6.91252,0 -12.25001,-1.925 -16.0125,-5.775 -3.7625,-3.84999 -5.6,-8.53124 -5.5125,-14.04375 0,-14.87497 4.94374,-26.59996 14.83125,-35.175 6.82498,-5.86244 13.91247,-8.79369 21.2625,-8.79375 2.53746,6e-5 5.24996,0.30631 8.1375,0.91875 2.97495,0.61256 5.2062,1.31256 6.69375,2.1 m -31.63125,36.61875 c -2e-5,6.73751 2.49373,10.10626 7.48125,10.10625 2.79997,10e-6 5.64372,-1.04999 8.53125,-3.15 2.88746,-2.09998 5.20621,-5.51248 6.95625,-10.2375 1.31245,-6.12497 2.6687,-11.76871 4.06875,-16.93125 1.48745,-5.16245 2.4937,-8.74995 3.01875,-10.7625 -7.35004,0.96255 -14.21879,4.2438 -20.60625,9.84375 -6.30002,5.60004 -9.45002,12.64378 -9.45,21.13125 m 13.78125,38.325 c -3.15003,0.61248 -5.90628,1.09373 -8.26875,1.44375 -2.36252,0.34998 -4.33127,0.65623 -5.90625,0.91875 -1.48752,0.26248 -2.62502,0.56873 -3.4125,0.91875 -0.70002,0.34998 -1.05002,0.91873 -1.05,1.70625 -2e-5,1.57498 0.96248,2.93122 2.8875,4.06875 2.01248,1.13747 3.98123,1.66247 5.90625,1.575 3.32497,-3e-5 6.60622,-3.54377 9.84375,-10.63125"
         style="font-size:131.25000000000000000px;font-variant:normal;font-stretch:normal;fill:#4b4b4b;font-family:Leckerli One;-inkscape-font-specification:Leckerli One;fill-opacity:1"
         id="path3125"
         inkscape:connector-curvature="0"
         sodipodi:nodetypes="cccccccccccccccscsccccssccccccssccccccccccccc" /></g></g></svg>