<?xml version="1.0" encoding="UTF-8" standalone="no"?>
<svg
   xmlns:dc="http://purl.org/dc/elements/1.1/"
   xmlns:cc="http://creativecommons.org/ns#"
   xmlns:rdf="http://www.w3.org/1999/02/22-rdf-syntax-ns#"
   xmlns:svg="http://www.w3.org/2000/svg"
   xmlns="http://www.w3.org/2000/svg"
   xmlns:sodipodi="http://sodipodi.sourceforge.net/DTD/sodipodi-0.dtd"
   xmlns:inkscape="http://www.inkscape.org/namespaces/inkscape"
   version="1.1"
   x="0px"
   y="0px"
   width="100px"
   height="100px"
   viewBox="0 -4.831 100 100"
   overflow="visible"
   enable-background="new 0 -4.831 100 100"
   xml:space="preserve"
   id="svg2"
   inkscape:version="0.48.5 r10040"
   sodipodi:docname="love.svg"><metadata
     id="metadata10"><rdf:RDF><cc:Work
         rdf:about=""><dc:format>image/svg+xml</dc:format><dc:type
           rdf:resource="http://purl.org/dc/dcmitype/StillImage" /></cc:Work></rdf:RDF></metadata><sodipodi:namedview
     pagecolor="#ffffff"
     bordercolor="#666666"
     borderopacity="1"
     objecttolerance="10"
     gridtolerance="10"
     guidetolerance="10"
     inkscape:pageopacity="0"
     inkscape:pageshadow="2"
     inkscape:window-width="808"
     inkscape:window-height="480"
     id="namedview8"
     showgrid="false"
     inkscape:zoom="2.36"
     inkscape:cx="50"
     inkscape:cy="50"
     inkscape:window-x="0"
     inkscape:window-y="27"
     inkscape:window-maximized="0"
     inkscape:current-layer="svg2" /><defs
     id="defs4" /><path
     fill="#000000"
     d="M98.2,17.305c-2.493-6.252-7.495-11.51-14.416-14.766C77.667-0.34,71.076-0.686,65.085,1.073  C59.096,2.832,53.71,7.626,50,13.168C46.291,7.626,40.905,2.832,34.916,1.073S22.334-0.34,16.217,2.539  C9.297,5.794,4.295,11.053,1.801,17.305c-2.493,6.252-2.504,13.511,0.638,20.73C9.161,53.477,49.787,89.719,50,90.338  c0.213-0.619,40.84-36.861,47.561-52.303C100.705,30.815,100.693,23.557,98.2,17.305z"
     id="path6"
     style="fill:#e447ef;fill-opacity:0.63921571" /></svg>