<?xml version="1.0" encoding="UTF-8" standalone="no"?>
<!-- Generator: Adobe Illustrator 16.0.0, SVG Export Plug-In . SVG Version: 6.00 Build 0)  -->

<svg
   xmlns:dc="http://purl.org/dc/elements/1.1/"
   xmlns:cc="http://creativecommons.org/ns#"
   xmlns:rdf="http://www.w3.org/1999/02/22-rdf-syntax-ns#"
   xmlns:svg="http://www.w3.org/2000/svg"
   xmlns="http://www.w3.org/2000/svg"
   xmlns:xlink="http://www.w3.org/1999/xlink"
   xmlns:sodipodi="http://sodipodi.sourceforge.net/DTD/sodipodi-0.dtd"
   xmlns:inkscape="http://www.inkscape.org/namespaces/inkscape"
   version="1.1"
   id="Layer_1"
   x="0px"
   y="0px"
   width="120"
   height="120"
   viewBox="0 0 120 120"
   enable-background="new 0 0 416 286"
   xml:space="preserve"
   inkscape:version="0.48.5 r10040"
   sodipodi:docname="play.svg"><metadata
     id="metadata309"><rdf:RDF><cc:Work
         rdf:about=""><dc:format>image/svg+xml</dc:format><dc:type
           rdf:resource="http://purl.org/dc/dcmitype/StillImage" /></cc:Work></rdf:RDF></metadata><defs
     id="defs307"><linearGradient
       id="linearGradient3875"><stop
         style="stop-color:#ff32a3;stop-opacity:1;"
         offset="0"
         id="stop3877" /><stop
         id="stop3885"
         offset="0.36844382"
         style="stop-color:#f732e1;stop-opacity:1;" /><stop
         id="stop3883"
         offset="0.78172928"
         style="stop-color:#a132f0;stop-opacity:1;" /><stop
         style="stop-color:#6d32ff;stop-opacity:1;"
         offset="1"
         id="stop3879" /></linearGradient><linearGradient
       inkscape:collect="always"
       xlink:href="#linearGradient3875"
       id="linearGradient3889"
       x1="18"
       y1="58.5"
       x2="128"
       y2="98.5"
       gradientUnits="userSpaceOnUse" /><linearGradient
       inkscape:collect="always"
       xlink:href="#linearGradient3875-8"
       id="linearGradient3889-2"
       x1="18"
       y1="58.5"
       x2="128"
       y2="98.5"
       gradientUnits="userSpaceOnUse" /><linearGradient
       id="linearGradient3875-8"><stop
         style="stop-color:#ff32a3;stop-opacity:1;"
         offset="0"
         id="stop3877-4" /><stop
         id="stop3885-3"
         offset="0.36844382"
         style="stop-color:#f732e1;stop-opacity:1;" /><stop
         id="stop3883-9"
         offset="0.78172928"
         style="stop-color:#a132f0;stop-opacity:1;" /><stop
         style="stop-color:#6d32ff;stop-opacity:1;"
         offset="1"
         id="stop3879-6" /></linearGradient></defs><sodipodi:namedview
     pagecolor="#ffffff"
     bordercolor="#666666"
     borderopacity="1"
     objecttolerance="10"
     gridtolerance="10"
     guidetolerance="10"
     inkscape:pageopacity="0"
     inkscape:pageshadow="2"
     inkscape:window-width="1268"
     inkscape:window-height="695"
     id="namedview305"
     showgrid="false"
     inkscape:zoom="1"
     inkscape:cx="-119.38076"
     inkscape:cy="143"
     inkscape:window-x="380"
     inkscape:window-y="147"
     inkscape:window-maximized="0"
     inkscape:current-layer="logo"
     inkscape:showpageshadow="false" /><g
     display="none"
     id="g65"
     style="display:none"
     transform="translate(0,-166)"><g
       display="inline"
       id="g67"
       style="display:inline"><polygon
         points="84.157,286 166.721,286 84.157,143 42.878,214.5 "
         id="polygon69"
         style="fill:#303f9f" /><polygon
         points="331.842,143 373.121,71.5 331.842,0 249.278,0 "
         id="polygon71"
         style="fill:#3f51b5" /><polygon
         points="331.842,286 414.4,143 373.121,71.5 249.278,286 "
         id="polygon73"
         style="fill:#7986cb" /><polygon
         points="42.878,214.5 166.721,0 84.157,0 1.596,143 "
         id="polygon75"
         style="fill:#536dfe" /><polygon
         points="249.278,0 290.561,71.5 331.842,0 "
         id="polygon77"
         style="fill-opacity:0.5" /><polygon
         points="84.157,286 125.438,214.5 166.721,286 "
         id="polygon79"
         style="fill-opacity:0.5" /><polygon
         points="84.157,0 125.438,71.5 166.721,0 "
         id="polygon81"
         style="fill:#ffffff;fill-opacity:0.2" /><polygon
         points="42.878,71.5 84.157,0 125.438,71.5 "
         id="polygon83"
         style="fill:#ffffff;fill-opacity:0.1" /><polygon
         points="42.878,71.5 84.157,143 125.438,71.5 "
         id="polygon85"
         style="fill:#ffffff;fill-opacity:0" /><polygon
         points="1.598,143 42.878,71.5 84.157,143 "
         id="polygon87"
         style="fill-opacity:0.1" /><polygon
         points="1.598,143 42.878,214.5 84.157,143 "
         id="polygon89"
         style="fill-opacity:0.2" /><polygon
         points="125.438,214.5 84.157,143 42.878,214.5 "
         id="polygon91"
         style="fill:#ffffff;fill-opacity:0" /><polygon
         points="373.121,71.5 331.842,143 290.561,71.5 "
         id="polygon93"
         style="fill:#ffffff;fill-opacity:0" /><g
         id="g95"><polygon
           points="331.842,143 373.121,71.5 414.4,143 "
           id="polygon97"
           style="fill:#ffffff;fill-opacity:0.2" /><polygon
           points="331.842,143 373.121,214.5 414.4,143 "
           id="polygon99"
           style="fill:#ffffff;fill-opacity:0.1" /><polygon
           points="290.561,214.5 331.842,143 373.121,214.5 "
           id="polygon101"
           style="fill:#ffffff;fill-opacity:0" /><polygon
           points="290.561,214.5 331.842,286 373.121,214.5 "
           id="polygon103"
           style="fill-opacity:0.1" /><polygon
           points="249.278,286 290.561,214.5 331.842,286 "
           id="polygon105"
           style="fill-opacity:0.2" /></g><polygon
         points="125.438,214.5 84.157,286 42.878,214.5 "
         id="polygon107"
         style="fill-opacity:0.2" /><polygon
         points="373.121,71.5 331.842,0 290.561,71.5 "
         id="polygon109"
         style="fill-opacity:0.2" /></g><rect
       y="-65"
       display="inline"
       width="416"
       height="416"
       id="rect111"
       x="0"
       style="fill:none;display:inline" /></g><g
     display="none"
     id="g113"
     style="display:none"
     transform="translate(0,-166)"><g
       display="inline"
       id="g115"
       style="display:inline"><polygon
         points="166.721,286 331.843,0 249.279,0 84.157,286 "
         id="polygon117"
         style="fill:#ff4081" /><polygon
         points="249.279,0 290.558,71.5 331.843,0 "
         id="polygon119"
         style="fill:#ffffff;fill-opacity:0.2" /><polygon
         points="208,71.5 249.279,0 290.558,71.5 "
         id="polygon121"
         style="fill:#ffffff;fill-opacity:0.1" /><polygon
         points="208,71.5 249.279,143 290.558,71.5 "
         id="polygon123"
         style="fill:#ffffff;fill-opacity:0" /><polygon
         points="166.721,143 208,214.5 249.279,143 "
         id="polygon125"
         style="fill-opacity:0.2" /><polygon
         points="125.439,214.5 166.721,143 208,214.5 "
         id="polygon127"
         style="fill-opacity:0.3" /><polygon
         points="125.439,214.5 166.721,286 208,214.5 "
         id="polygon129"
         style="fill-opacity:0.4" /><polygon
         points="84.157,286 125.439,214.5 166.721,286 "
         id="polygon131"
         style="fill-opacity:0.5" /><polygon
         points="166.721,143 208,71.5 249.279,143 "
         id="polygon133"
         style="fill-opacity:0.1" /></g><g
       display="inline"
       id="g135"
       style="display:inline"><polygon
         points="249.279,286 373.121,71.5 331.84,0 166.718,286 "
         id="polygon137"
         style="fill:#ff4081" /><polygon
         points="290.558,71.5 331.84,0 373.121,71.5 "
         id="polygon139"
         style="fill:#ffffff;fill-opacity:0.1" /><polygon
         points="290.558,71.5 331.84,143 373.121,71.5 "
         id="polygon141"
         style="fill:#ffffff;fill-opacity:0" /><polygon
         points="249.279,143 290.558,214.5 331.84,143 "
         id="polygon143"
         style="fill-opacity:0.2" /><polygon
         points="208,214.5 249.279,143 290.558,214.5 "
         id="polygon145"
         style="fill-opacity:0.3" /><polygon
         points="208,214.5 249.279,286 290.558,214.5 "
         id="polygon147"
         style="fill-opacity:0.4" /><polygon
         points="166.718,286 208,214.5 249.279,286 "
         id="polygon149"
         style="fill-opacity:0.5" /><polygon
         points="249.279,143 290.558,71.5 331.84,143 "
         id="polygon151"
         style="fill-opacity:0.1" /></g><g
       display="inline"
       id="g153"
       style="display:inline"><polygon
         points="84.16,286 249.279,0 166.718,0 42.878,214.5 "
         id="polygon155"
         style="fill:#ff4081" /><polygon
         points="166.718,0 208,71.5 249.279,0 "
         id="polygon157"
         style="fill:#ffffff;fill-opacity:0.2" /><polygon
         points="125.439,71.5 166.718,0 208,71.5 "
         id="polygon159"
         style="fill:#ffffff;fill-opacity:0.1" /><polygon
         points="125.439,71.5 166.718,143 208,71.5 "
         id="polygon161"
         style="fill:#ffffff;fill-opacity:0" /><polygon
         points="84.16,143 125.439,214.5 166.718,143 "
         id="polygon163"
         style="fill-opacity:0.2" /><polygon
         points="42.878,214.5 84.16,143 125.439,214.5 "
         id="polygon165"
         style="fill-opacity:0.3" /><polygon
         points="42.878,214.5 84.16,286 125.439,214.5 "
         id="polygon167"
         style="fill-opacity:0.4" /><polygon
         points="84.16,143 125.439,71.5 166.718,143 "
         id="polygon169"
         style="fill-opacity:0.1" /></g><rect
       y="-65"
       display="inline"
       width="416"
       height="416"
       id="rect171"
       x="0"
       style="fill:none;display:inline" /><g
       display="inline"
       id="g173"
       style="display:inline"><polygon
         points="84.157,286 166.721,286 84.157,143 42.878,214.5 "
         id="polygon175"
         style="fill:#303f9f" /><polygon
         points="331.843,143 373.121,71.5 331.843,0 249.279,0 "
         id="polygon177"
         style="fill:#3f51b5" /><polygon
         points="331.843,286 414.4,143 373.121,71.5 249.279,286 "
         id="polygon179"
         style="fill:#7986cb" /><polygon
         points="42.878,214.5 166.721,0 84.157,0 1.597,143 "
         id="polygon181"
         style="fill:#536dfe" /><polygon
         points="249.279,0 290.558,71.5 331.843,0 "
         id="polygon183"
         style="fill-opacity:0.5" /><polygon
         points="84.157,286 125.439,214.5 166.721,286 "
         id="polygon185"
         style="fill-opacity:0.5" /><polygon
         points="84.157,0 125.439,71.5 166.721,0 "
         id="polygon187"
         style="fill:#ffffff;fill-opacity:0.2" /><polygon
         points="42.878,71.5 84.157,0 125.439,71.5 "
         id="polygon189"
         style="fill:#ffffff;fill-opacity:0.1" /><polygon
         points="42.878,71.5 84.157,143 125.439,71.5 "
         id="polygon191"
         style="fill:#ffffff;fill-opacity:0" /><polygon
         points="1.6,143 42.878,71.5 84.157,143 "
         id="polygon193"
         style="fill-opacity:0.1" /><polygon
         points="1.6,143 42.878,214.5 84.157,143 "
         id="polygon195"
         style="fill-opacity:0.2" /><polygon
         points="125.439,214.5 84.157,143 42.878,214.5 "
         id="polygon197"
         style="fill:#ffffff;fill-opacity:0" /><polygon
         points="373.121,71.5 331.843,143 290.558,71.5 "
         id="polygon199"
         style="fill:#ffffff;fill-opacity:0" /><g
         id="g201"><polygon
           points="331.843,143 373.121,71.5 414.4,143 "
           id="polygon203"
           style="fill:#ffffff;fill-opacity:0.2" /><polygon
           points="331.843,143 373.121,214.5 414.4,143 "
           id="polygon205"
           style="fill:#ffffff;fill-opacity:0.1" /><polygon
           points="290.558,214.5 331.843,143 373.121,214.5 "
           id="polygon207"
           style="fill:#ffffff;fill-opacity:0" /><polygon
           points="290.558,214.5 331.843,286 373.121,214.5 "
           id="polygon209"
           style="fill-opacity:0.1" /><polygon
           points="249.279,286 290.558,214.5 331.843,286 "
           id="polygon211"
           style="fill-opacity:0.2" /></g><polygon
         points="125.439,214.5 84.157,286 42.878,214.5 "
         id="polygon213"
         style="fill-opacity:0.2" /><polygon
         points="373.121,71.5 331.843,0 290.558,71.5 "
         id="polygon215"
         style="fill-opacity:0.2" /></g></g><g
     display="none"
     id="g217"
     style="display:none"
     transform="translate(0,-166)"><g
       display="inline"
       id="g219"
       style="display:inline"><polygon
         points="166.721,286 331.843,0 249.279,0 84.157,286 "
         id="polygon221"
         style="fill:#9f499b" /><polygon
         points="249.279,0 290.558,71.5 331.843,0 "
         id="polygon223"
         style="fill:#ffffff;fill-opacity:0.2" /><polygon
         points="208,71.5 249.279,0 290.558,71.5 "
         id="polygon225"
         style="fill:#ffffff;fill-opacity:0.1" /><polygon
         points="208,71.5 249.279,143 290.558,71.5 "
         id="polygon227"
         style="fill:#ffffff;fill-opacity:0" /><polygon
         points="166.721,143 208,214.5 249.279,143 "
         id="polygon229"
         style="fill-opacity:0.2" /><polygon
         points="125.439,214.5 166.721,143 208,214.5 "
         id="polygon231"
         style="fill-opacity:0.3" /><polygon
         points="125.439,214.5 166.721,286 208,214.5 "
         id="polygon233"
         style="fill-opacity:0.4" /><polygon
         points="84.157,286 125.439,214.5 166.721,286 "
         id="polygon235"
         style="fill-opacity:0.5" /><polygon
         points="166.721,143 208,71.5 249.279,143 "
         id="polygon237"
         style="fill-opacity:0.1" /></g><g
       display="inline"
       id="g239"
       style="display:inline"><polygon
         points="249.279,286 373.121,71.5 331.84,0 166.718,286 "
         id="polygon241"
         style="fill:#9f499b" /><polygon
         points="290.558,71.5 331.84,0 373.121,71.5 "
         id="polygon243"
         style="fill:#ffffff;fill-opacity:0.1" /><polygon
         points="290.558,71.5 331.84,143 373.121,71.5 "
         id="polygon245"
         style="fill:#ffffff;fill-opacity:0" /><polygon
         points="249.279,143 290.558,214.5 331.84,143 "
         id="polygon247"
         style="fill-opacity:0.2" /><polygon
         points="208,214.5 249.279,143 290.558,214.5 "
         id="polygon249"
         style="fill-opacity:0.3" /><polygon
         points="208,214.5 249.279,286 290.558,214.5 "
         id="polygon251"
         style="fill-opacity:0.4" /><polygon
         points="166.718,286 208,214.5 249.279,286 "
         id="polygon253"
         style="fill-opacity:0.5" /><polygon
         points="249.279,143 290.558,71.5 331.84,143 "
         id="polygon255"
         style="fill-opacity:0.1" /></g><g
       display="inline"
       id="g257"
       style="display:inline"><polygon
         points="331.843,286 414.4,143 373.121,71.5 249.279,286 "
         id="polygon259"
         style="fill:#9f499b" /><polygon
         points="331.843,143 373.121,214.5 414.4,143 "
         id="polygon261"
         style="fill-opacity:0.2" /><polygon
         points="290.558,214.5 331.843,143 373.121,214.5 "
         id="polygon263"
         style="fill-opacity:0.3" /><polygon
         points="290.558,214.5 331.843,286 373.121,214.5 "
         id="polygon265"
         style="fill-opacity:0.4" /><polygon
         points="249.279,286 290.558,214.5 331.843,286 "
         id="polygon267"
         style="fill-opacity:0.5" /><polygon
         points="331.843,143 373.121,71.5 414.4,143 "
         id="polygon269"
         style="fill-opacity:0.1" /></g><g
       display="inline"
       id="g271"
       style="display:inline"><polygon
         points="84.16,286 249.279,0 166.718,0 42.878,214.5 "
         id="polygon273"
         style="fill:#9f499b" /><polygon
         points="166.718,0 208,71.5 249.279,0 "
         id="polygon275"
         style="fill:#ffffff;fill-opacity:0.2" /><polygon
         points="125.439,71.5 166.718,0 208,71.5 "
         id="polygon277"
         style="fill:#ffffff;fill-opacity:0.1" /><polygon
         points="125.439,71.5 166.718,143 208,71.5 "
         id="polygon279"
         style="fill:#ffffff;fill-opacity:0" /><polygon
         points="84.16,143 125.439,214.5 166.718,143 "
         id="polygon281"
         style="fill-opacity:0.2" /><polygon
         points="42.878,214.5 84.16,143 125.439,214.5 "
         id="polygon283"
         style="fill-opacity:0.3" /><polygon
         points="42.878,214.5 84.16,286 125.439,214.5 "
         id="polygon285"
         style="fill-opacity:0.4" /><polygon
         points="84.16,143 125.439,71.5 166.718,143 "
         id="polygon287"
         style="fill-opacity:0.1" /></g><g
       display="inline"
       id="g289"
       style="display:inline"><polygon
         points="42.878,214.5 166.721,0 84.157,0 1.6,143 "
         id="polygon291"
         style="fill:#9f499b" /><polygon
         points="84.157,0 125.439,71.5 166.721,0 "
         id="polygon293"
         style="fill:#ffffff;fill-opacity:0.2" /><polygon
         points="42.878,71.5 84.157,0 125.439,71.5 "
         id="polygon295"
         style="fill:#ffffff;fill-opacity:0.1" /><polygon
         points="42.878,71.5 84.157,143 125.439,71.5 "
         id="polygon297"
         style="fill:#ffffff;fill-opacity:0" /><polygon
         points="1.6,143 42.878,214.5 84.157,143 "
         id="polygon299"
         style="fill-opacity:0.2" /><polygon
         points="1.6,143 42.878,71.5 84.157,143 "
         id="polygon301"
         style="fill-opacity:0.1" /></g><rect
       y="-65"
       display="inline"
       width="416"
       height="416"
       id="rect303"
       x="0"
       style="fill:none;display:inline" /></g><g
     id="logo"
     transform="scale(0.19047619,0.19047619)"><path
       sodipodi:type="arc"
       style="opacity:0.46468401;fill:#000000;stroke:none;stroke-width:4.22727489000000034;stroke-miterlimit:4;stroke-opacity:1;stroke-dasharray:none;stroke-dashoffset:0;fill-opacity:1"
       id="path3873-3"
       sodipodi:cx="72.5"
       sodipodi:cy="81.5"
       sodipodi:rx="46.5"
       sodipodi:ry="46.5"
       d="M 119,81.5 C 119,107.18124 98.181241,128 72.5,128 46.818759,128 26,107.18124 26,81.5 26,55.818759 46.818759,35 72.5,35 98.181241,35 119,55.818759 119,81.5 z"
       transform="matrix(6.4796634,0,0,6.4796634,-154.77559,-213.09256)" /><path
       sodipodi:type="arc"
       style="fill:none;stroke:url(#linearGradient3889);stroke-width:2.43068194;stroke-miterlimit:4;stroke-opacity:1;stroke-dasharray:none;stroke-dashoffset:0"
       id="path3873"
       sodipodi:cx="72.5"
       sodipodi:cy="81.5"
       sodipodi:rx="46.5"
       sodipodi:ry="46.5"
       d="m 119,81.5 a 46.5,46.5 0 1 1 -93,0 46.5,46.5 0 1 1 93,0 z"
       transform="matrix(6.6016504,0,0,6.6016504,-163.61965,-223.03451)" /><path
       sodipodi:type="star"
       style="fill:#ffffff;fill-opacity:1;stroke:none"
       id="path3885"
       sodipodi:sides="3"
       sodipodi:cx="-145"
       sodipodi:cy="25"
       sodipodi:r1="28.017851"
       sodipodi:r2="14.008926"
       sodipodi:arg1="0"
       sodipodi:arg2="1.0471976"
       inkscape:flatsided="true"
       inkscape:rounded="0"
       inkscape:randomized="0"
       d="m -116.98215,25 -42.02678,24.264171 0,-48.52834162 z"
       transform="matrix(5.25,0,0,5.25,1070.9766,183.75)"
       inkscape:transform-center-x="-7.0044632" /></g></svg>