<?xml version="1.0" encoding="utf-8"?>
<!-- Generator: Adobe Illustrator 16.0.4, SVG Export Plug-In . SVG Version: 6.00 Build 0)  -->
<!DOCTYPE svg PUBLIC "-//W3C//DTD SVG 1.1//EN" "http://www.w3.org/Graphics/SVG/1.1/DTD/svg11.dtd">
<svg version="1.1" id="Layer_1" xmlns="http://www.w3.org/2000/svg" xmlns:xlink="http://www.w3.org/1999/xlink" x="0px" y="0px"
	 width="180px" height="52.486px" viewBox="0 0 180 52.486" enable-background="new 0 0 180 52.486" xml:space="preserve">
<g>
	<g>
		<path fill="#B9B9B9" d="M14.681,13.527H0V0.101h45.486v13.426H30.811v38.959H14.681V13.527z"/>
		<path fill="#B9B9B9" d="M47.993,0.101h44.156v13.426H64.133v6.528h28.016v12.477H64.133v6.528h28.023v13.426H47.993V0.101z"/>
		<path fill="#B9B9B9" d="M94.865,0.101h26.486c17.459,0,23.629,12.914,23.629,26.116c0,16.073-8.511,26.27-26.781,26.27H94.865
			V0.101z M111.004,39.061h6.312c10.055,0,11.524-8.147,11.524-13.067c0-3.295-1.032-12.466-12.7-12.466h-5.137V39.061z"/>
	</g>
	<g>
		<g>
			<path fill="#B9B9B9" d="M168.172,32.299l-4.924-8.165l-4.801,8.165h-11.826l11.227-16.508L147.038,0h11.83l4.381,7.806L167.755,0
				h11.826l-10.808,15.791L180,32.299H168.172z"/>
		</g>
	</g>
</g>
</svg>
