<?xml version="1.0" encoding="UTF-8" standalone="no"?>
<!-- Generator: Adobe Illustrator 16.0.4, SVG Export Plug-In . SVG Version: 6.00 Build 0)  -->

<svg
   xmlns:dc="http://purl.org/dc/elements/1.1/"
   xmlns:cc="http://creativecommons.org/ns#"
   xmlns:rdf="http://www.w3.org/1999/02/22-rdf-syntax-ns#"
   xmlns:svg="http://www.w3.org/2000/svg"
   xmlns="http://www.w3.org/2000/svg"
   xmlns:sodipodi="http://sodipodi.sourceforge.net/DTD/sodipodi-0.dtd"
   xmlns:inkscape="http://www.inkscape.org/namespaces/inkscape"
   version="1.1"
   id="Layer_1"
   x="0px"
   y="0px"
   width="70"
   height="56.887447"
   viewBox="222 231.429 70 56.887449"
   enable-background="new 222 231.429 90 73.143"
   xml:space="preserve"
   inkscape:version="0.48.5 r10040"
   sodipodi:docname="twitter.svg"><metadata
     id="metadata8"><rdf:RDF><cc:Work
         rdf:about=""><dc:format>image/svg+xml</dc:format><dc:type
           rdf:resource="http://purl.org/dc/dcmitype/StillImage" /></cc:Work></rdf:RDF></metadata><defs
     id="defs6" /><sodipodi:namedview
     pagecolor="#ffffff"
     bordercolor="#666666"
     borderopacity="1"
     objecttolerance="10"
     gridtolerance="10"
     guidetolerance="10"
     inkscape:pageopacity="0"
     inkscape:pageshadow="2"
     inkscape:window-width="1515"
     inkscape:window-height="830"
     id="namedview4"
     showgrid="false"
     fit-margin-top="0"
     fit-margin-left="0"
     fit-margin-right="0"
     fit-margin-bottom="0"
     inkscape:zoom="3.2265563"
     inkscape:cx="45.619855"
     inkscape:cy="36.570499"
     inkscape:window-x="0"
     inkscape:window-y="27"
     inkscape:window-maximized="0"
     inkscape:current-layer="Layer_1" /><path
     id="twitter-4-icon"
     d="m 284.83278,245.59623 c 0.90922,20.19889 -14.15556,42.72022 -40.81856,42.72022 -8.10989,0 -15.659,-2.37844 -22.01422,-6.45244 7.61833,0.89755 15.22344,-1.21489 21.26133,-5.94689 -6.28444,-0.11589 -11.58889,-4.26767 -13.41589,-9.97345 2.25012,0.43011 4.46367,0.30489 6.48512,-0.24578 -6.90589,-1.38755 -11.67445,-7.60977 -11.51889,-14.26366 1.93589,1.07644 4.151,1.72277 6.50533,1.79744 -6.39644,-4.27467 -8.20711,-12.71978 -4.44422,-19.17378 7.08244,8.68856 17.66489,14.406 29.60144,15.00489 -2.09533,-8.98333 4.71878,-17.63378 13.98911,-17.63378 4.13078,0 7.86334,1.74378 10.48289,4.53523 3.27134,-0.644 6.34434,-1.83945 9.12023,-3.48445 -1.07178,3.35378 -3.34989,6.16856 -6.314,7.945 2.90422,-0.34689 5.67233,-1.11844 8.24755,-2.26178 -1.92578,2.87934 -4.35944,5.40867 -7.16722,7.43323 z"
     inkscape:connector-curvature="0"
     style="fill:#b9b9b9" /></svg>