<?xml version="1.0" encoding="utf-8"?>
<!-- Generator: Adobe Illustrator 16.0.4, SVG Export Plug-In . SVG Version: 6.00 Build 0)  -->
<!DOCTYPE svg PUBLIC "-//W3C//DTD SVG 1.1//EN" "http://www.w3.org/Graphics/SVG/1.1/DTD/svg11.dtd">
<svg version="1.1" id="Layer_1" xmlns="http://www.w3.org/2000/svg" xmlns:xlink="http://www.w3.org/1999/xlink" x="0px" y="0px"
	 width="130px" height="54.22px" viewBox="0 0 130 54.22" enable-background="new 0 0 130 54.22" xml:space="preserve">
<g>
	<path fill="#B9B9B9" d="M99.245,21.844c-0.773,0-1.557,0.367-2.342,1.143v15.795c0.785,0.785,1.568,1.155,2.342,1.155
		c1.354,0,2.043-1.155,2.043-3.496V25.382C101.288,23.042,100.598,21.844,99.245,21.844z"/>
	<path fill="#B9B9B9" d="M116.409,21.844c-1.568,0-2.354,1.198-2.354,3.595v2.399h4.694v-2.399
		C118.75,23.042,117.966,21.844,116.409,21.844z"/>
	<path fill="#B9B9B9" d="M129.228,11.697c0,0-0.757-5.312-3.079-7.652c-2.945-3.07-6.246-3.085-7.759-3.265
		C107.553,0,91.298,0,91.298,0h-0.034c0,0-16.255,0-27.092,0.78c-1.514,0.18-4.814,0.195-7.759,3.265
		c-2.322,2.34-3.078,7.652-3.078,7.652s-0.775,6.238-0.775,12.477v5.849c0,6.238,0.775,12.476,0.775,12.476s0.755,5.313,3.078,7.652
		c2.945,3.071,6.815,2.974,8.539,3.295c6.195,0.592,26.329,0.774,26.329,0.774s16.272-0.023,27.109-0.804
		c1.513-0.18,4.814-0.194,7.759-3.266c2.322-2.339,3.079-7.652,3.079-7.652S130,36.261,130,30.023v-5.849
		C130,17.936,129.228,11.697,129.228,11.697z M69.629,43.848h-5.224V13.965h-5.523V9.069h16.371v4.896h-5.624V43.848z
		 M88.144,43.848h-4.698v-2.826c-1.868,2.141-3.64,3.185-5.365,3.185c-1.515,0-2.556-0.615-3.026-1.928
		c-0.258-0.785-0.414-2.025-0.414-3.854V17.933h4.693v19.08c0,1.101,0,1.673,0.043,1.826c0.115,0.728,0.472,1.098,1.099,1.098
		c0.943,0,1.927-0.726,2.97-2.196V17.933h4.698V43.848z M105.982,36.072c0,2.396-0.16,4.123-0.474,5.222
		c-0.626,1.927-1.883,2.913-3.753,2.913c-1.669,0-3.285-0.928-4.853-2.869v2.511h-4.695V9.069h4.695v11.359
		c1.517-1.866,3.126-2.81,4.853-2.81c1.87,0,3.126,0.984,3.753,2.925c0.313,1.042,0.474,2.755,0.474,5.209V36.072z M123.445,31.748
		h-9.389v4.594c0,2.398,0.785,3.596,2.396,3.596c1.156,0,1.83-0.628,2.098-1.883c0.043-0.256,0.104-1.298,0.104-3.183h4.791v0.687
		c0,1.514-0.058,2.556-0.099,3.025c-0.159,1.041-0.527,1.982-1.098,2.812c-1.299,1.883-3.225,2.811-5.678,2.811
		c-2.457,0-4.326-0.885-5.683-2.656c-0.998-1.297-1.51-3.34-1.51-6.094v-9.076c0-2.77,0.455-4.795,1.452-6.106
		c1.358-1.773,3.228-2.656,5.624-2.656c2.356,0,4.225,0.883,5.541,2.656c0.981,1.311,1.452,3.337,1.452,6.106V31.748z"/>
</g>
<path fill="#B9B9B9" d="M11.853,29.683v14.233H6.59V29.683c-0.477-2.521-1.53-6.216-3.217-11.118C2.263,15.305,1.109,12.033,0,8.773
	h5.537l3.736,13.801l3.589-13.801h5.322L11.853,29.683z M29.737,41.596c-1.312,1.787-3.16,2.682-5.538,2.682
	c-2.364,0-4.212-0.895-5.523-2.682c-1.01-1.31-1.486-3.375-1.486-6.158v-9.171c0-2.799,0.477-4.846,1.486-6.169
	c1.311-1.792,3.159-2.685,5.523-2.685c2.378,0,4.225,0.893,5.538,2.685c0.994,1.323,1.472,3.37,1.472,6.169v9.171
	C31.209,38.221,30.73,40.287,29.737,41.596z M26.462,25.314c0-2.424-0.733-3.631-2.263-3.631s-2.264,1.208-2.264,3.631v11.016
	c0,2.423,0.734,3.636,2.264,3.636s2.263-1.213,2.263-3.636V25.314z M43.753,43.917v-2.855c-1.889,2.165-3.691,3.217-5.423,3.217
	c-1.526,0-2.582-0.62-3.055-1.946c-0.261-0.794-0.421-2.045-0.421-3.895V17.728h4.731V37.01c0,1.112,0,1.69,0.057,1.845
	c0.105,0.734,0.477,1.111,1.114,1.111c0.949,0,1.944-0.734,2.996-2.222V17.728h4.745v26.188H43.753z"/>
</svg>
